<svg width="200" height="200" viewBox="0 0 200 200" fill="none" xmlns="http://www.w3.org/2000/svg">
<rect width="200" height="200" fill="#EAF4FF"/>
<g clip-path="url(#clip0_397_34)">
<path d="M178.106 88.9851L168.166 86.6567L166.391 85.9403L120.769 86.2985V108.507L178.106 108.687V88.9851Z" fill="white"/>
<path d="M159.467 106.537C159.753 105.774 159.854 104.954 159.761 104.144C159.668 103.334 159.385 102.558 158.935 101.881C158.472 101.321 157.905 100.859 157.265 100.521C156.626 100.183 155.926 99.9755 155.207 99.9104L124.32 99.5522C124.142 99.5522 123.965 99.3731 123.787 99.3731C123.746 99.3419 123.712 99.3013 123.689 99.2547C123.666 99.208 123.654 99.1566 123.654 99.1045C123.654 99.0523 123.666 99.0009 123.689 98.9543C123.712 98.9077 123.746 98.8671 123.787 98.8358C123.965 98.4776 124.142 98.2985 124.497 98.2985L155.562 97.9403C157.534 97.7195 159.413 96.9725 161.004 95.7763C162.595 94.5802 163.842 92.9779 164.615 91.1343L166.391 86.4776C166.391 86.2985 166.568 86.1194 166.391 85.9403C165.425 81.6031 163.083 77.7024 159.721 74.8308C156.358 71.9592 152.157 70.2738 147.758 70.0306C143.359 69.7874 139.002 70.9997 135.348 73.4834C131.694 75.967 128.944 79.5862 127.515 83.791C125.66 82.4543 123.397 81.8201 121.124 82C119.039 82.2346 117.094 83.1781 115.61 84.6753C114.126 86.1725 113.191 88.1345 112.959 90.2388C112.84 91.3159 112.9 92.4054 113.136 93.4627C109.761 93.5568 106.556 94.9757 104.203 97.4174C101.849 99.8592 100.532 103.131 100.533 106.537C100.503 107.199 100.563 107.862 100.71 108.507C100.718 108.647 100.777 108.779 100.875 108.878C100.973 108.977 101.104 109.037 101.243 109.045H158.225C158.58 109.045 158.935 108.866 158.935 108.507L159.467 106.537Z" fill="#F48120"/>
<path d="M169.231 86.4776H168.343C168.166 86.4776 167.988 86.6567 167.811 86.8358L166.568 91.1343C166.282 91.8971 166.182 92.7178 166.274 93.5279C166.367 94.3379 166.65 95.1139 167.101 95.791C167.563 96.3505 168.13 96.8125 168.77 97.1506C169.41 97.4887 170.109 97.6961 170.828 97.7612L177.396 98.1194C177.574 98.1194 177.751 98.2985 177.929 98.2985C177.97 98.3298 178.004 98.3703 178.027 98.417C178.05 98.4636 178.062 98.515 178.062 98.5672C178.062 98.6193 178.05 98.6707 178.027 98.7173C178.004 98.764 177.97 98.8045 177.929 98.8358C177.751 99.194 177.574 99.3731 177.219 99.3731L170.473 99.7313C168.501 99.9522 166.623 100.699 165.032 101.895C163.441 103.091 162.194 104.694 161.42 106.537L161.065 108.149C160.888 108.328 161.065 108.687 161.42 108.687H184.852C184.924 108.697 184.998 108.69 185.067 108.667C185.137 108.644 185.2 108.604 185.251 108.552C185.303 108.5 185.342 108.437 185.365 108.367C185.388 108.297 185.395 108.222 185.385 108.149C185.807 106.632 186.046 105.068 186.095 103.493C186.067 98.9887 184.281 94.6773 181.124 91.4925C177.968 88.3077 173.695 86.506 169.231 86.4776Z" fill="#FAAD3F"/>
<path d="M188.402 118.716C188.086 118.716 187.777 118.622 187.515 118.445C187.252 118.268 187.047 118.016 186.926 117.721C186.805 117.427 186.774 117.103 186.835 116.79C186.897 116.477 187.049 116.19 187.273 115.965C187.496 115.739 187.781 115.586 188.091 115.524C188.401 115.461 188.722 115.493 189.014 115.615C189.306 115.737 189.555 115.944 189.731 116.209C189.906 116.474 190 116.786 190 117.104C190.001 117.316 189.96 117.526 189.88 117.722C189.8 117.918 189.683 118.096 189.534 118.246C189.385 118.396 189.209 118.515 189.015 118.596C188.821 118.676 188.612 118.717 188.402 118.716ZM188.402 115.851C188.157 115.851 187.916 115.924 187.712 116.062C187.508 116.2 187.348 116.396 187.254 116.625C187.16 116.854 187.136 117.106 187.184 117.349C187.232 117.592 187.35 117.816 187.524 117.991C187.697 118.166 187.919 118.286 188.16 118.334C188.401 118.383 188.651 118.358 188.878 118.263C189.105 118.168 189.299 118.007 189.436 117.801C189.572 117.595 189.645 117.352 189.645 117.104C189.649 116.939 189.62 116.774 189.559 116.62C189.498 116.466 189.406 116.326 189.29 116.209C189.174 116.092 189.035 116 188.883 115.938C188.73 115.876 188.567 115.847 188.402 115.851ZM189.112 118H188.757L188.402 117.463H188.047V118H187.692V116.388H188.58C188.652 116.378 188.726 116.384 188.795 116.408C188.865 116.431 188.928 116.47 188.979 116.522C189.031 116.575 189.07 116.638 189.093 116.708C189.116 116.778 189.123 116.852 189.112 116.925C189.112 117.104 188.935 117.284 188.757 117.463L189.112 118ZM188.58 117.104C188.757 117.104 188.757 117.104 188.757 116.925C188.758 116.902 188.754 116.878 188.745 116.856C188.736 116.834 188.723 116.814 188.706 116.798C188.69 116.781 188.67 116.768 188.648 116.759C188.627 116.75 188.603 116.746 188.58 116.746H188.047V117.284H188.58V117.104ZM29.3491 115.493H33.2544V126.239H40V129.642H29.3491V115.493ZM44.0828 122.478C44.0829 121.483 44.2831 120.498 44.6713 119.584C45.0595 118.669 45.6276 117.844 46.3412 117.157C47.0548 116.471 47.8991 115.937 48.823 115.59C49.7469 115.242 50.731 115.087 51.716 115.134C52.6917 115.09 53.6661 115.248 54.5787 115.599C55.4914 115.95 56.323 116.487 57.0219 117.175C57.7208 117.863 58.2722 118.689 58.642 119.601C59.0118 120.513 59.192 121.492 59.1716 122.478C59.1715 123.472 58.9713 124.457 58.5832 125.372C58.195 126.286 57.6269 127.112 56.9132 127.798C56.1996 128.485 55.3553 129.018 54.4314 129.366C53.5076 129.713 52.5234 129.868 51.5385 129.821C50.5665 129.85 49.5987 129.681 48.6927 129.325C47.7868 128.969 46.9613 128.432 46.2655 127.746C45.5697 127.061 45.0178 126.241 44.6428 125.336C44.2678 124.431 44.0774 123.459 44.0828 122.478ZM55.2663 122.478C55.3011 121.981 55.2357 121.483 55.0742 121.012C54.9126 120.542 54.6582 120.11 54.3264 119.741C53.9945 119.373 53.5921 119.076 53.1434 118.87C52.6948 118.663 52.2092 118.55 51.716 118.537C50.7588 118.584 49.8562 119.001 49.1953 119.702C48.5343 120.402 48.1657 121.332 48.1657 122.299C48.1657 123.265 48.5343 124.195 49.1953 124.896C49.8562 125.596 50.7588 126.013 51.716 126.06C53.8461 126.418 55.2663 124.627 55.2663 122.478ZM63.9645 123.373V115.493H67.8698V123.373C67.8698 125.343 68.9349 126.418 70.5325 126.418C70.9057 126.449 71.281 126.395 71.6304 126.259C71.9798 126.124 72.2943 125.91 72.5504 125.634C72.8065 125.359 72.9975 125.028 73.1092 124.668C73.2208 124.307 73.2503 123.926 73.1953 123.552V115.493H77.1006V123.373C77.1006 128.03 74.4379 130 70.5325 130C66.4497 129.821 63.9645 127.851 63.9645 123.373ZM82.9586 115.493H88.4615C93.4319 115.493 96.4497 118.358 96.4497 122.478C96.4497 126.597 93.4319 129.642 88.4615 129.642H83.1361V115.493H82.9586ZM88.4615 126.06C88.9562 126.107 89.4553 126.05 89.9268 125.892C90.3983 125.733 90.8318 125.477 91.1995 125.14C91.5671 124.803 91.8609 124.392 92.062 123.933C92.263 123.475 92.3668 122.979 92.3668 122.478C92.3668 121.976 92.263 121.48 92.062 121.022C91.8609 120.563 91.5671 120.152 91.1995 119.815C90.8318 119.478 90.3983 119.222 89.9268 119.063C89.4553 118.905 88.9562 118.848 88.4615 118.896H86.8639V126.06H88.4615ZM101.953 115.493H113.136V118.896H105.858V121.224H112.426V124.448H105.858V129.642H101.953V115.493ZM118.639 115.493H122.544V126.239H129.29V129.642H118.639V115.493ZM139.408 115.313H143.314L149.349 129.642H145.089L144.024 127.134H138.521L137.456 129.642H133.373L139.408 115.313ZM142.959 124.09L141.361 120.149L139.763 124.09H142.959ZM154.32 115.493H160.888C161.726 115.424 162.569 115.532 163.363 115.809C164.158 116.087 164.886 116.528 165.503 117.104C166.012 117.658 166.381 118.327 166.579 119.054C166.777 119.782 166.799 120.547 166.642 121.285C166.486 122.023 166.155 122.712 165.679 123.293C165.202 123.875 164.594 124.332 163.905 124.627L167.278 129.642H162.84L160 125.343H158.225V129.642H154.32V115.493ZM160.71 122.299C161.953 122.299 162.84 121.582 162.84 120.687C162.84 119.612 161.953 119.075 160.71 119.075H158.225V122.478H160.71V122.299ZM172.249 115.493H183.609V118.716H176.154V120.866H182.899V124.09H176.154V126.239H183.787V129.642H172.249V115.493ZM20.8284 124.269C20.5607 124.902 20.1158 125.442 19.5483 125.824C18.9807 126.206 18.3152 126.412 17.6331 126.418C16.6759 126.371 15.7734 125.954 15.1124 125.254C14.4515 124.554 14.0828 123.624 14.0828 122.657C14.0828 121.69 14.4515 120.76 15.1124 120.06C15.7734 119.36 16.6759 118.943 17.6331 118.896C18.3591 118.91 19.0651 119.137 19.6644 119.551C20.2636 119.965 20.7299 120.546 21.0059 121.224H25.0888C24.7395 119.508 23.7988 117.973 22.4338 116.891C21.0688 115.809 19.3679 115.25 17.6331 115.313C16.6519 115.281 15.6741 115.447 14.7568 115.8C13.8395 116.153 13.0012 116.687 12.2906 117.37C11.5801 118.054 11.0116 118.873 10.6183 119.781C10.225 120.689 10.0148 121.666 9.99999 122.657C9.99453 123.638 10.185 124.61 10.56 125.515C10.935 126.42 11.4868 127.24 12.1827 127.925C12.8785 128.611 13.704 129.148 14.6099 129.504C15.5158 129.86 16.4837 130.029 17.4556 130C19.1517 130.012 20.8037 129.455 22.1528 128.418C23.502 127.381 24.4721 125.922 24.9112 124.269H20.8284Z" fill="#404041"/>
</g>
<defs>
<clipPath id="clip0_397_34">
<rect width="180" height="60" fill="white" transform="translate(10 70)"/>
</clipPath>
</defs>
</svg>
