<svg width="200" height="200" viewBox="0 0 200 200" fill="none" xmlns="http://www.w3.org/2000/svg">
<rect width="200" height="200" fill="#3448C5"/>
<path d="M145.647 86.3483C142.486 76.4354 136.272 67.7757 127.893 61.6068C119.514 55.438 109.4 52.0758 98.9951 52.0008C90.1984 51.9504 81.5543 54.2977 73.9914 58.7907C66.4285 63.2836 60.2328 69.7523 56.0699 77.5017C48.4189 78.8729 41.4052 82.65 36.0496 88.2833C30.694 93.9167 27.276 101.112 26.2931 108.823C25.3102 116.533 26.8137 124.356 30.5848 131.153C34.3559 137.95 40.1977 143.365 47.26 146.612L48.1765 147.028H48.2376V136.641C43.3928 133.667 39.6 129.252 37.3908 124.014C35.1816 118.776 34.6667 112.979 35.9183 107.433C37.1699 101.888 40.1252 96.8735 44.3701 93.0923C48.6149 89.3111 53.9365 86.9529 59.589 86.3483L62.1549 86.0794L63.2791 83.7701C66.4709 77.0057 71.5275 71.2932 77.8544 67.304C84.1813 63.3147 91.5156 61.2146 98.9951 61.2505C107.907 61.3134 116.543 64.3542 123.528 69.8893C130.513 75.4244 135.447 83.136 137.546 91.7979L138.426 95.2925H142.091C148.001 95.4137 153.628 97.8409 157.772 102.056C161.916 106.27 164.248 111.938 164.269 117.849C164.269 126.463 159.296 133.513 150.828 137.081V146.93L151.439 146.734C165.051 142.274 173.506 131.204 173.506 117.849C173.45 110.119 170.598 102.67 165.477 96.8801C160.356 91.0897 153.312 87.3486 145.647 86.3483Z" fill="white"/>
<path d="M81.0821 145.83L83.1104 147.859C83.1652 147.915 83.2024 147.986 83.2173 148.063C83.2322 148.141 83.2242 148.22 83.1944 148.293C83.1645 148.366 83.1141 148.428 83.0492 148.473C82.9844 148.517 82.908 148.542 82.8294 148.543H66.8226C64.8782 148.543 63.0134 147.771 61.6385 146.396C60.2636 145.021 59.4912 143.156 59.4912 141.212V110.127C59.4912 110.02 59.4487 109.917 59.3731 109.842C59.2975 109.766 59.1949 109.723 59.088 109.723H55.6667C55.5871 109.724 55.509 109.702 55.4423 109.658C55.3756 109.615 55.3233 109.552 55.2919 109.479C55.2606 109.406 55.2516 109.325 55.2661 109.247C55.2806 109.169 55.3179 109.096 55.3734 109.039L68.9609 95.4517C68.9984 95.4137 69.0431 95.3835 69.0924 95.3629C69.1417 95.3422 69.1946 95.3316 69.248 95.3316C69.3015 95.3316 69.3544 95.3422 69.4037 95.3629C69.453 95.3835 69.4977 95.4137 69.5352 95.4517L83.1104 109.039C83.1652 109.096 83.2024 109.167 83.2173 109.244C83.2322 109.321 83.2242 109.401 83.1944 109.474C83.1645 109.546 83.1141 109.609 83.0492 109.653C82.9844 109.697 82.908 109.722 82.8294 109.723H79.3592C79.2511 109.723 79.1473 109.766 79.0697 109.841C78.9921 109.916 78.947 110.019 78.9438 110.127V140.674C78.9487 142.608 79.7173 144.461 81.0821 145.83ZM111.104 145.83L113.145 147.859C113.2 147.916 113.237 147.988 113.252 148.066C113.266 148.145 113.257 148.226 113.226 148.299C113.195 148.372 113.142 148.434 113.076 148.478C113.009 148.521 112.931 148.544 112.851 148.543H96.8812C94.9368 148.543 93.072 147.771 91.6971 146.396C90.3222 145.021 89.5498 143.156 89.5498 141.212V117.983C89.5499 117.875 89.5078 117.772 89.4325 117.694C89.3572 117.616 89.2547 117.571 89.1466 117.568H85.6886C85.6101 117.566 85.5337 117.542 85.4688 117.498C85.404 117.453 85.3535 117.391 85.3237 117.318C85.2938 117.245 85.2859 117.166 85.3008 117.088C85.3157 117.011 85.3528 116.94 85.4076 116.884L98.9829 103.321C99.0204 103.283 99.0651 103.252 99.1144 103.232C99.1637 103.211 99.2166 103.201 99.27 103.201C99.3234 103.201 99.3763 103.211 99.4256 103.232C99.4749 103.252 99.5196 103.283 99.5571 103.321L113.145 116.859C113.2 116.916 113.237 116.989 113.252 117.067C113.266 117.145 113.257 117.226 113.226 117.299C113.195 117.372 113.142 117.435 113.076 117.478C113.009 117.522 112.931 117.544 112.851 117.544H109.381C109.273 117.547 109.171 117.592 109.095 117.67C109.02 117.747 108.978 117.851 108.978 117.959V140.674C108.98 142.606 109.744 144.459 111.104 145.83ZM141.138 145.83L143.167 147.859C143.221 147.915 143.258 147.986 143.273 148.063C143.288 148.141 143.28 148.22 143.25 148.293C143.221 148.366 143.17 148.428 143.105 148.473C143.041 148.517 142.964 148.542 142.886 148.543H126.866C124.922 148.543 123.057 147.771 121.682 146.396C120.308 145.021 119.535 143.156 119.535 141.212V125.779C119.535 125.672 119.493 125.57 119.417 125.494C119.341 125.418 119.239 125.376 119.132 125.376H115.711C115.629 125.377 115.55 125.353 115.483 125.308C115.415 125.263 115.363 125.199 115.332 125.124C115.302 125.048 115.295 124.966 115.312 124.887C115.33 124.807 115.371 124.735 115.43 124.679L129.017 111.104C129.053 111.067 129.097 111.037 129.145 111.016C129.194 110.996 129.246 110.985 129.298 110.985C129.351 110.985 129.402 110.996 129.451 111.016C129.499 111.037 129.543 111.067 129.579 111.104L143.167 124.679C143.226 124.735 143.266 124.807 143.284 124.887C143.301 124.966 143.294 125.048 143.264 125.124C143.233 125.199 143.181 125.263 143.114 125.308C143.046 125.353 142.967 125.377 142.886 125.376H139.403C139.296 125.376 139.194 125.418 139.118 125.494C139.042 125.57 139 125.672 139 125.779V140.674C139.005 142.608 139.773 144.461 141.138 145.83Z" fill="white"/>
</svg>
