<svg width="200" height="200" viewBox="0 0 200 200" fill="none" xmlns="http://www.w3.org/2000/svg">
<rect width="200" height="200" fill="#EAF4FF"/>
<path d="M76.925 133.075C68 124.675 62.75 113.125 62.75 100C62.75 86.875 68 75.325 76.4 66.925C83.75 59.575 83.75 48.025 76.4 40.675C69.05 33.325 57.5 33.325 50.15 40.675C35.45 55.9 26 76.9 26 100C26 123.1 35.45 144.1 50.675 159.325C58.025 166.675 69.575 166.675 76.925 159.325C83.75 151.975 83.75 140.425 76.925 133.075Z" fill="#FAE501"/>
<path d="M76.925 66.925C85.325 58 96.875 52.75 110 52.75C123.125 52.75 134.675 58 143.075 66.4C150.425 73.75 161.975 73.75 169.325 66.4C176.675 59.05 176.675 47.5 169.325 40.15C154.1 25.45 133.1 16 110 16C86.9 16 65.9 25.45 50.675 40.675C43.325 48.025 43.325 59.575 50.675 66.925C58.025 73.75 69.575 73.75 76.925 66.925Z" fill="#4FB5E1"/>
<path d="M143.075 133.075C134.675 142 123.125 147.25 110 147.25C96.875 147.25 85.325 142 76.925 133.6C69.575 126.25 58.025 126.25 50.675 133.6C43.325 140.95 43.325 152.5 50.675 159.85C65.9 174.55 86.9 184 110 184C133.1 184 154.1 174.55 169.325 159.325C176.675 151.975 176.675 140.425 169.325 133.075C161.975 126.25 150.425 126.25 143.075 133.075Z" fill="#F05751"/>
<path d="M63.8 72.175C73.9483 72.175 82.175 63.9482 82.175 53.8C82.175 43.6518 73.9483 35.425 63.8 35.425C53.6518 35.425 45.425 43.6518 45.425 53.8C45.425 63.9482 53.6518 72.175 63.8 72.175Z" fill="#0681B6"/>
<path d="M63.8 164.575C73.9483 164.575 82.175 156.348 82.175 146.2C82.175 136.052 73.9483 127.825 63.8 127.825C53.6518 127.825 45.425 136.052 45.425 146.2C45.425 156.348 53.6518 164.575 63.8 164.575Z" fill="#CD4739"/>
</svg>
