<svg width="200" height="200" viewBox="0 0 200 200" fill="none" xmlns="http://www.w3.org/2000/svg">
<rect width="200" height="200" fill="#EAF4FF"/>
<path fill-rule="evenodd" clip-rule="evenodd" d="M150.544 113.368C149.768 113.174 149.121 112.98 148.54 112.722C148.126 112.539 147.778 112.323 147.472 112.074C147.238 111.883 147.139 111.579 147.167 111.278C147.471 108.054 147.133 105.205 147.441 102.004C148.734 88.9608 156.943 93.0932 164.311 90.9622C168.502 89.783 172.692 87.4733 174.275 82.951C174.567 82.1163 174.317 81.204 173.731 80.5407C168.929 75.1015 163.616 70.2926 157.847 66.1676C138.439 52.3634 113.231 46.6079 90.0544 49.9083C89.0762 50.0476 88.5634 51.1296 89.1023 51.9569C91.9485 56.3262 95.6553 59.9286 99.8964 62.6252C100.788 63.1924 100.423 64.3828 99.396 64.1326C97.2941 63.6207 94.6977 62.6823 92.2418 60.9619C91.9587 60.7636 91.5951 60.7136 91.2737 60.8415C90.1486 61.2897 88.5691 61.9187 87.2207 62.4957C86.3193 62.8813 86.1358 64.0397 86.8803 64.6771C98.436 74.5701 115.117 76.1221 128.294 68.3216C129.201 67.7852 130.672 68.9302 130.393 69.9447C130.002 71.3619 129.556 73.2435 129.084 75.7239C125.787 92.3829 116.286 91.0914 104.522 86.8944C81.1232 78.4228 67.8023 85.5851 55.9868 71.4612C55.0633 70.3573 53.4497 69.9676 52.3825 70.9334C50.0496 73.0439 48.6757 76.0587 48.6757 79.2753C48.6757 83.1553 50.6642 86.4833 53.6202 88.4944C54.0346 88.7763 54.5882 88.6573 54.9005 88.2655C55.4976 87.5169 56.0089 86.9786 56.5915 86.602C57.4478 86.049 57.9027 87.3129 57.163 88.0142C54.8662 90.1913 54.1373 92.8379 52.5538 97.8713C49.9682 106.072 51.0673 114.466 38.98 116.661C32.581 116.984 32.7102 121.31 30.3833 127.767C27.7069 135.491 24.2096 138.95 17.7765 145.641C16.7816 146.676 16.6912 148.337 17.8063 149.241C20.3603 151.312 22.9913 151.401 25.6648 150.302C32.4517 147.461 37.6873 138.679 42.5997 132.997C48.0937 126.669 61.2799 129.381 71.2339 123.182C76.411 120.011 79.595 115.992 78.8905 110.067C78.7558 108.933 80.0454 108.276 80.476 109.332C81.1141 110.898 81.5424 112.548 81.741 114.247C81.8076 114.817 82.319 115.24 82.8936 115.212C93.5794 114.694 107.348 126.339 120.249 129.627C121.127 129.851 121.755 128.837 121.266 128.076C120.502 126.889 119.85 125.662 119.324 124.409C118.852 123.279 118.475 122.177 118.184 121.105C117.882 119.99 119.518 119.666 120.11 120.657C123.556 126.426 130.081 131.702 139.038 132.351C142.205 132.61 145.696 132.222 149.315 131.124C153.646 129.833 157.654 128.154 162.437 129.058C165.992 129.704 169.288 131.512 171.357 134.547C174.235 138.741 180.287 139.877 183.572 135.582C184.076 134.922 184.117 134.026 183.788 133.264C176.562 116.542 158.372 115.386 150.544 113.368Z" fill="#0E1C2F"/>
</svg>
