<svg width="200" height="200" viewBox="0 0 200 200" fill="none" xmlns="http://www.w3.org/2000/svg">
<rect width="200" height="200" fill="#EAF4FF"/>
<path d="M131.447 54.4281C123.952 49.7594 116.883 47.9234 109.814 43.261C105.441 40.2909 99.3622 33.2219 94.2737 27.1436C93.2835 36.9007 90.3131 40.8547 86.9166 43.6811C79.7101 49.3397 75.1859 51.0316 68.9691 54.4281C63.7428 57.1103 35.3302 74.0739 35.3302 110.539C35.3302 147.004 65.9986 173.856 100.064 173.856C134.129 173.856 163.67 149.123 163.67 111.667C163.67 74.2117 135.971 57.2544 131.447 54.4281ZM45.4698 82.2516C44.3417 80.2777 45.8958 75.891 51.1347 70.1009C51.6107 69.562 52.1999 69.0041 52.8516 68.4339C60.0331 60.419 69.9467 54.967 73.0423 53.4192C74.446 52.7112 80.6751 49.7471 87.0294 44.9406C90.8396 41.9702 93.672 39.1442 94.9502 29.8131C95.0507 30.1829 95.1509 30.5401 95.2511 30.8909C96.8931 36.0732 96.6424 38.793 96.6424 39.99C96.6424 41.2622 95.9281 44.6587 93.672 46.3569C92.682 47.0586 92.3938 47.6228 92.3938 47.7669C92.3938 48.3308 93.672 48.7571 93.672 50.029C93.672 51.5832 92.9703 54.6914 85.4753 62.1861C77.9806 69.6748 67.2395 76.3174 58.905 80.4156C50.5579 84.514 46.6102 84.2318 45.4698 82.2516ZM132.261 160.559C131.547 161.267 125.055 165.785 117.422 166.493C109.789 167.202 99.4621 167.628 93.2456 161.975C92.2557 160.985 92.5439 159.569 93.2456 159.005C93.9599 158.441 94.5241 158.015 95.3639 158.015C96.216 158.015 96.0782 158.015 96.5043 158.297C99.3243 160.559 103.573 162.395 112.61 162.395C121.659 162.395 128.013 159.851 130.845 157.733C132.124 156.742 132.688 157.589 132.826 158.152C132.963 158.723 133.252 159.568 132.261 160.559ZM107.521 147.694C109.075 146.284 111.619 144.021 114.026 143.031C116.432 142.041 117.698 142.185 119.967 142.185C122.222 142.185 124.629 142.323 126.321 143.451C128.013 144.585 129.016 147.13 129.58 148.546C130.144 149.956 129.58 150.808 128.439 151.372C127.449 151.936 127.311 151.654 126.321 149.818C125.331 147.976 124.491 146.139 119.541 146.139C114.59 146.139 113.036 147.838 110.63 149.818C108.236 151.798 107.383 152.5 106.531 151.372C105.691 150.238 105.967 149.11 107.521 147.694ZM144.983 148.828C139.894 148.402 129.717 132.572 123.213 132.29C115.016 132.008 97.2066 149.392 83.2195 149.392C74.7345 149.392 72.1902 148.119 69.3578 146.283C65.1215 143.313 63.0035 138.789 63.1416 132.572C63.2791 121.549 73.6068 111.228 86.6036 111.09C103.147 110.946 114.59 127.484 122.925 127.34C129.993 127.202 143.567 113.346 150.209 113.346C157.278 113.346 159.258 120.697 159.258 125.077C159.258 129.464 157.842 137.379 154.458 142.323C151.061 147.274 148.943 149.11 144.983 148.828Z" fill="black"/>
</svg>
