<svg width="200" height="200" viewBox="0 0 200 200" fill="none" xmlns="http://www.w3.org/2000/svg">
<rect width="200" height="200" fill="#EAF4FF"/>
<path d="M134.846 34.5887V164.004C134.846 178.495 144.834 186.553 155.435 186.553C165.239 186.553 176.023 179.69 176.023 164.004V35.5691C176.023 22.3029 166.219 14 155.435 14C144.65 14 134.846 23.1608 134.846 34.5887Z" fill="#F8AB00"/>
<path d="M80.9229 100.277V164.004C80.9229 178.496 90.9108 186.553 101.512 186.553C111.316 186.553 122.1 179.69 122.1 164.004V101.257C122.1 87.9909 112.296 79.688 101.512 79.688C90.727 79.688 80.9229 88.8487 80.9229 100.277Z" fill="#E37300"/>
<path d="M68.1775 165.965C68.1775 177.331 58.9555 186.553 47.5887 186.553C36.222 186.553 27 177.331 27 165.965C27 154.598 36.222 145.376 47.5887 145.376C58.9555 145.376 68.1775 154.598 68.1775 165.965Z" fill="#E37300"/>
</svg>
