<svg width="200" height="200" viewBox="0 0 200 200" fill="none" xmlns="http://www.w3.org/2000/svg">
<rect width="200" height="200" fill="#EAF4FF"/>
<g clip-path="url(#clip0_397_15)">
<path d="M32.8694 149.987L39.7932 161.923C41.232 164.436 43.3001 166.41 45.7279 167.846L70.4559 125.128H21C21 127.91 21.7194 130.692 23.1581 133.205L32.8694 149.987Z" fill="#0066DA"/>
<path d="M99.5 74.8718L74.772 32.1538C72.3442 33.5897 70.2761 35.5641 68.8373 38.0769L23.1581 117.051C21.7458 119.51 21.0019 122.294 21 125.128H70.4559L99.5 74.8718Z" fill="#00AC47"/>
<path d="M153.272 167.846C155.7 166.41 157.768 164.436 159.207 161.923L162.084 156.987L175.842 133.205C177.281 130.692 178 127.91 178 125.128H128.541L139.065 145.769L153.272 167.846Z" fill="#EA4335"/>
<path d="M99.5 74.8718L124.228 32.1538C121.8 30.7179 119.013 30 116.135 30H82.8648C79.9874 30 77.1999 30.8077 74.772 32.1538L99.5 74.8718Z" fill="#00832D"/>
<path d="M128.544 125.128H70.4559L45.728 167.846C48.1558 169.282 50.9433 170 53.8207 170H145.179C148.057 170 150.844 169.192 153.272 167.846L128.544 125.128Z" fill="#2684FC"/>
<path d="M153.002 77.5641L130.163 38.0769C128.724 35.5641 126.656 33.5897 124.228 32.1538L99.5 74.8718L128.544 125.128H177.91C177.91 122.346 177.191 119.564 175.752 117.051L153.002 77.5641Z" fill="#FFBA00"/>
</g>
<defs>
<clipPath id="clip0_397_15">
<rect width="157" height="140" fill="white" transform="translate(21 30)"/>
</clipPath>
</defs>
</svg>
