<svg width="200" height="200" viewBox="0 0 200 200" fill="none" xmlns="http://www.w3.org/2000/svg">
<rect width="200" height="200" fill="black"/>
<g clip-path="url(#clip0_397_42)">
<path d="M112.373 84.39C113.303 84.395 114.198 84.0354 114.868 83.3878C115.535 82.7428 115.922 81.8598 115.945 80.9302C115.934 79.9878 115.554 79.0875 114.887 78.4239C114.218 77.7575 113.316 77.3793 112.373 77.3694C111.443 77.3911 110.559 77.7763 109.908 78.443C109.259 79.107 108.898 80.0006 108.902 80.9302C108.91 81.8468 109.278 82.7232 109.927 83.3685C110.578 84.0165 111.456 84.3829 112.373 84.39ZM136.647 87.7168H145.263V88.3983C144.785 88.4822 144.324 88.6411 143.896 88.8693C143.108 89.2366 141.533 91.017 140.324 94.0007C138.276 99.1849 136.124 105.309 133.865 112.327L133.024 114.988C132.656 116.191 132.341 116.976 132.183 117.45C132.026 117.924 131.815 118.653 131.449 119.542C131.241 120.211 130.973 120.859 130.648 121.48C130.226 122.265 129.439 123.875 128.809 124.359C127.81 125.198 126.339 126.14 124.502 125.983C120.93 125.983 118.252 123.321 118.198 120.173C118.198 118.025 119.565 116.612 121.613 116.612C123.084 116.612 124.395 117.41 124.395 119.071C124.395 120.277 123.189 121.533 123.189 122.161C123.189 123.784 124.134 124.556 125.973 124.556C127.442 124.556 128.643 123.614 129.543 121.73C130.752 119.582 130.856 117.227 129.858 114.608L122.297 94.6603C120.561 90.0538 119.248 88.5394 117.622 88.3771V87.6953H129.543V88.3765C128.125 88.5337 127.391 89.372 127.391 90.8888C127.391 91.9881 127.81 93.6648 128.598 95.8125L130.015 99.6853C131.644 103.874 132.952 107.539 133.641 109.844C135.163 105.08 136.578 100.891 137.948 97.2259C138.946 94.5031 139.419 92.5658 139.419 91.4133C139.419 89.372 138.316 88.43 136.634 88.43L136.647 87.7168ZM53.7102 113.216C52.1886 112.95 50.875 111.592 50.875 108.713V74L42.2084 75.8844V76.619C43.6795 76.4618 45.1452 77.7685 45.1452 80.5444V108.713C45.1452 111.435 43.6741 113.006 42.2084 113.216C42.0708 113.24 41.9313 113.257 41.7919 113.266C41.0418 113.318 40.2905 113.185 39.6027 112.881C38.4386 112.375 37.4669 111.473 36.6443 110.126L32.6398 103.739C31.7952 102.391 30.5397 101.354 29.0602 100.78C27.5773 100.205 25.9494 100.122 24.4163 100.545L28.9337 95.5709C32.3458 91.8024 35.4991 89.3938 38.4919 88.3986V87.7165H28.5548V88.398C31.1283 89.3932 30.9708 91.5917 28.0208 95.0515L21.6666 102.431V74L13 75.8844V76.619C14.4711 76.619 15.9367 78.0826 15.9367 80.6481V108.713C15.9367 111.803 14.5193 113.006 13 113.216V113.897H24.5124V113.216C22.6223 112.95 21.6771 111.489 21.6771 108.713V103.531L24.144 100.808L30.1193 110.597C31.537 112.955 32.8506 113.897 34.9518 113.897H54.9491V113.365C54.9491 113.365 54.3777 113.325 53.7102 113.216ZM77.5687 109.905V98.1948C77.4536 90.5381 74.2337 87.0517 66.8596 87.0517C64.5053 87.0334 62.2128 87.8072 60.3479 89.2496C58.4042 90.7162 57.459 92.3929 57.459 94.3305C57.459 96.2149 58.5084 97.628 60.241 97.628C62.0807 97.628 63.3943 96.5819 63.3943 95.1156C63.3943 94.0164 62.6572 92.4969 62.6572 91.4508C62.6572 89.564 64.0777 87.9405 66.5446 87.9405C69.6979 87.9405 71.9539 90.2987 71.9539 95.5334V98.674L69.3292 99.3019C67.9624 99.568 66.809 99.8343 65.9145 100.1C65.0202 100.366 63.8669 100.729 62.4997 101.25C59.7684 102.299 58.3 103.294 57.0373 105.179C56.4192 106.089 56.0897 107.166 56.0922 108.268C56.0922 112.612 59.1383 114.603 63.3943 114.603C66.7554 114.603 70.3358 112.822 71.9539 109.471C71.9771 110.528 72.231 111.567 72.6988 112.516C74.4795 116.109 80.3774 113.985 80.3774 113.985V113.304C77.7955 113.706 77.5819 110.645 77.5687 109.905ZM71.9618 106.28C71.9618 108.007 71.3316 109.421 70.0717 110.416C68.8648 111.412 67.6045 111.936 66.291 111.936C63.7172 111.936 62.0352 110.259 62.0352 107.169C62.0352 105.705 62.8361 104.343 63.5063 103.558C64.0375 103.015 64.6603 102.572 65.3458 102.248C66.2377 101.777 66.6807 101.535 67.2895 101.253L69.6925 100.364C70.8991 99.893 71.6334 99.6321 71.9485 99.4752L71.9618 106.28ZM188 87.7168H167.573V74H188L183.712 80.8586L188 87.7168ZM146.478 110.565C145.221 109.276 144.23 107.752 143.562 106.078C142.893 104.404 142.561 102.614 142.583 100.811C142.555 99.0165 142.885 97.2344 143.554 95.5697C144.224 93.9022 145.218 92.3853 146.478 91.1074C149.055 88.3822 152.21 87.0169 155.895 87.0169C159.523 87.0169 162.682 88.3822 165.258 91.1074C166.535 92.375 167.544 93.889 168.223 95.5582C168.901 97.2245 169.235 99.0116 169.204 100.811C169.23 102.618 168.895 104.411 168.217 106.085C167.538 107.761 166.532 109.285 165.258 110.565C162.682 113.226 159.523 114.603 155.895 114.603C152.21 114.603 149.055 113.24 146.478 110.565ZM160.628 91.544C159.59 89.5187 158.225 88.3317 156.623 88.0122C153.374 87.3604 150.502 90.6896 149.431 95.9833C148.974 98.3578 148.863 100.786 149.102 103.193C149.338 105.601 150.009 107.946 151.083 110.113C152.125 112.141 153.486 113.325 155.088 113.644C158.338 114.296 161.293 110.826 162.372 105.479C163.266 101.011 162.812 95.5682 160.615 91.5412L160.628 91.544Z" fill="white"/>
<path d="M115.419 108.713V87.7168H96.9304V88.3478C99.4 88.7151 100.575 90.5729 99.4536 93.5853C93.6759 109.24 94.0443 108.537 93.6759 109.793C93.3075 108.588 92.4663 105.626 91.1021 101.91C89.7376 98.1948 88.8434 95.7306 88.475 94.6313C87.0572 90.2851 87.5298 88.6616 89.8419 88.401V87.7195H77.8647V88.401C79.6509 88.7683 81.2262 90.8093 82.5397 94.4741L84.3792 99.2382C86.4003 104.385 88.7741 111.481 89.5669 113.9H93.5476C94.8292 110.174 99.9714 95.3046 100.66 93.793C101.402 92.0709 102.243 90.7667 103.183 89.8645C103.638 89.3784 104.19 88.9948 104.803 88.7393C105.418 88.4831 106.08 88.3605 106.745 88.3795C106.745 88.3795 109.631 88.3795 109.631 91.1555V108.713C109.631 111.64 108.213 113.006 106.742 113.216V113.897H118.193V113.216C116.68 113.006 115.419 111.646 115.419 108.713Z" fill="white"/>
</g>
<defs>
<clipPath id="clip0_397_42">
<rect width="175" height="52" fill="white" transform="translate(13 74)"/>
</clipPath>
</defs>
</svg>
