<svg width="200" height="200" viewBox="0 0 200 200" fill="none" xmlns="http://www.w3.org/2000/svg">
<rect width="200" height="200" fill="#EAF4FF"/>
<path d="M135.957 75.5853L135.899 75.5602C135.865 75.5477 135.832 75.5351 135.803 75.5059C135.755 75.4544 135.719 75.3926 135.699 75.3252C135.679 75.2579 135.674 75.1868 135.686 75.1174L138.915 55.3748L154.058 70.5222L138.309 77.2228C138.265 77.2405 138.219 77.249 138.171 77.2479H138.109C138.088 77.2353 138.067 77.2186 138.025 77.1769C137.439 76.5243 136.738 75.9848 135.957 75.5853ZM157.922 74.3822L174.114 90.5739C177.477 93.9409 179.16 95.6203 179.774 97.5669C179.866 97.8552 179.942 98.1434 180 98.44L141.304 82.0519C141.284 82.0433 141.263 82.035 141.242 82.0269C141.087 81.9642 140.908 81.8932 140.908 81.7345C140.908 81.5757 141.091 81.5005 141.246 81.4379L141.296 81.417L157.922 74.3822ZM179.34 103.637C178.504 105.207 176.875 106.837 174.118 109.598L155.863 127.849L132.252 122.932L132.127 122.907C131.918 122.874 131.696 122.836 131.696 122.648C131.607 121.674 131.317 120.729 130.847 119.872C130.376 119.014 129.734 118.263 128.96 117.665C128.864 117.569 128.889 117.418 128.918 117.28C128.918 117.259 128.918 117.238 128.927 117.222L133.367 89.9598L133.384 89.8679C133.409 89.6591 133.447 89.4168 133.635 89.4168C134.586 89.2984 135.505 88.9918 136.337 88.5148C137.169 88.0379 137.897 87.4002 138.48 86.6388C138.518 86.597 138.543 86.551 138.593 86.526C138.727 86.4633 138.886 86.526 139.024 86.5844L179.34 103.637ZM151.664 132.048L121.645 162.067L126.784 130.485L126.792 130.443C126.796 130.402 126.805 130.36 126.817 130.322C126.859 130.222 126.967 130.18 127.072 130.138L127.122 130.118C128.247 129.638 129.242 128.897 130.025 127.958C130.126 127.841 130.247 127.728 130.401 127.707C130.441 127.701 130.482 127.701 130.522 127.707L151.66 132.052L151.664 132.048ZM115.292 168.42L111.908 171.804L74.4988 117.74C74.4853 117.72 74.4714 117.701 74.4571 117.681C74.3986 117.602 74.3359 117.523 74.3484 117.431C74.3526 117.364 74.3944 117.305 74.4404 117.255L74.4821 117.201C74.5949 117.034 74.691 116.867 74.7954 116.687L74.879 116.541L74.8915 116.528C74.95 116.428 75.0043 116.332 75.1046 116.278C75.1923 116.236 75.3134 116.253 75.4095 116.274L116.854 124.821C116.97 124.839 117.079 124.886 117.171 124.958C117.226 125.013 117.238 125.071 117.251 125.138C117.54 126.232 118.078 127.244 118.823 128.095C119.568 128.947 120.499 129.615 121.545 130.047C121.662 130.105 121.612 130.234 121.558 130.372C121.531 130.433 121.51 130.496 121.495 130.56C120.973 133.735 116.495 161.047 115.292 168.42ZM108.223 175.484C105.729 177.953 104.259 179.261 102.596 179.787C100.957 180.306 99.1976 180.306 97.5583 179.787C95.6116 179.169 93.9281 177.49 90.5653 174.123L52.9976 136.555L62.8104 121.337C62.8563 121.261 62.9023 121.195 62.9775 121.14C63.0819 121.065 63.2323 121.098 63.3576 121.14C65.6099 121.82 68.0282 121.697 70.2003 120.793C70.313 120.752 70.4258 120.722 70.5136 120.802C70.5574 120.842 70.5967 120.887 70.6305 120.936L108.223 175.484ZM49.3757 132.933L40.7577 124.315L57.7766 117.055C57.8201 117.036 57.867 117.026 57.9144 117.025C58.0564 117.025 58.14 117.167 58.2152 117.297C58.3862 117.56 58.5674 117.817 58.7583 118.066L58.8126 118.132C58.8627 118.203 58.8293 118.274 58.7791 118.341L49.3757 132.933ZM36.9437 120.501L26.0406 109.598C24.1858 107.743 22.8407 106.398 21.9049 105.241L55.057 112.117C55.0987 112.125 55.1405 112.132 55.1824 112.138C55.3871 112.171 55.6126 112.209 55.6126 112.401C55.6126 112.61 55.3662 112.706 55.1573 112.785L55.0612 112.827L36.9437 120.501ZM20 99.6348C20.0378 98.9324 20.1641 98.2376 20.376 97.5669C20.9942 95.6203 22.6736 93.9409 26.0406 90.5739L39.9932 76.6213C46.4174 85.9448 52.859 95.2563 59.318 104.556C59.4308 104.706 59.5561 104.873 59.4266 104.999C58.8167 105.671 58.2068 106.406 57.7766 107.204C57.7299 107.307 57.658 107.396 57.5677 107.463C57.5134 107.497 57.4549 107.484 57.3922 107.472H57.3839L20 99.6348ZM43.7278 72.8866L62.4887 54.1258C64.2516 54.8986 70.6681 57.6097 76.4079 60.0327C80.7525 61.8707 84.7127 63.5417 85.9576 64.0848C86.0829 64.1349 86.1957 64.185 86.25 64.3104C86.2834 64.3856 86.2667 64.4816 86.25 64.561C85.953 65.9152 85.9972 67.322 86.3785 68.6549C86.7599 69.9879 87.4665 71.2051 88.4348 72.1974C88.5601 72.3227 88.4348 72.5023 88.3262 72.6569L88.2677 72.7446L69.2186 102.25C69.1684 102.333 69.1225 102.404 69.0389 102.459C68.9387 102.521 68.7966 102.492 68.6797 102.463C67.9388 102.269 67.1771 102.165 66.4113 102.154C65.7262 102.154 64.9826 102.279 64.2307 102.417C64.1471 102.429 64.0678 102.446 64.0009 102.396C63.9271 102.336 63.8636 102.264 63.813 102.183L43.7278 72.8866ZM66.2776 50.3368L90.5653 26.0492C93.9281 22.6864 95.6116 21.0029 97.5583 20.3888C99.1976 19.8704 100.957 19.8704 102.596 20.3888C104.543 21.0029 106.226 22.6864 109.589 26.0492L114.853 31.3128L97.5792 58.0651C97.5365 58.143 97.4781 58.2112 97.4079 58.2656C97.3035 58.3366 97.1573 58.3074 97.0319 58.2656C95.67 57.8523 94.2279 57.7771 92.8304 58.0464C91.4329 58.3157 90.122 58.9215 89.0113 59.8113C88.8985 59.9282 88.7314 59.8614 88.5893 59.7987C86.3335 58.817 68.7883 51.4021 66.2776 50.3368ZM118.521 34.9806L134.47 50.93L130.627 74.7331V74.7957C130.623 74.85 130.612 74.9034 130.593 74.9545C130.552 75.038 130.468 75.0547 130.385 75.0798C129.563 75.3287 128.789 75.7142 128.095 76.2202C128.066 76.2415 128.038 76.2652 128.012 76.2912C127.966 76.3414 127.92 76.3873 127.845 76.3957C127.784 76.3976 127.723 76.3876 127.665 76.3664L103.361 66.0398L103.315 66.0189C103.16 65.9563 102.976 65.8811 102.976 65.7223C102.834 64.3679 102.391 63.0623 101.681 61.9C101.564 61.7078 101.435 61.5073 101.535 61.311L118.521 34.9806ZM102.095 70.9316L124.879 80.5815C125.004 80.64 125.142 80.6943 125.196 80.8238C125.218 80.9016 125.218 80.984 125.196 81.0619C125.129 81.3961 125.071 81.7762 125.071 82.1605V82.7997C125.071 82.9584 124.908 83.0253 124.758 83.0879L124.712 83.1047C121.102 84.6461 74.0393 104.715 73.9683 104.715C73.8973 104.715 73.8221 104.715 73.7511 104.644C73.6258 104.518 73.7511 104.343 73.8639 104.184C73.8838 104.156 73.9033 104.129 73.9224 104.1L92.6456 75.109L92.679 75.0589C92.7877 74.8835 92.913 74.6871 93.1135 74.6871L93.3015 74.7164C93.7276 74.7748 94.1036 74.8291 94.4837 74.8291C97.3244 74.8291 99.9561 73.4464 101.544 71.082C101.581 71.0188 101.629 70.9624 101.686 70.9149C101.798 70.8313 101.965 70.8731 102.095 70.9316ZM76.0027 109.301L127.302 87.4241C127.302 87.4241 127.377 87.4241 127.448 87.4951C127.728 87.775 127.966 87.963 128.196 88.1385L128.308 88.2095C128.413 88.268 128.517 88.3348 128.526 88.4434C128.526 88.4852 128.526 88.5103 128.517 88.5479L124.123 115.542L124.106 115.651C124.077 115.86 124.047 116.098 123.851 116.098C122.679 116.177 121.545 116.541 120.545 117.157C119.546 117.774 118.712 118.625 118.115 119.636L118.095 119.67C118.036 119.766 117.982 119.858 117.886 119.908C117.798 119.95 117.685 119.933 117.593 119.912L76.6836 111.474C76.6419 111.465 76.0487 109.306 76.0027 109.301Z" fill="url(#paint0_radial_200_265)"/>
<defs>
<radialGradient id="paint0_radial_200_265" cx="0" cy="0" r="1" gradientUnits="userSpaceOnUse" gradientTransform="translate(14.628 97.8283) rotate(90) scale(16000 18472.6)">
<stop stop-color="#20C6B7"/>
<stop offset="1" stop-color="#4D9ABF"/>
</radialGradient>
</defs>
</svg>
