<svg width="200" height="200" viewBox="0 0 200 200" fill="none" xmlns="http://www.w3.org/2000/svg">
<rect width="200" height="200" fill="#EAF4FF"/>
<path d="M72.1562 45.7355H65.1984C54.439 45.7104 45.7104 54.439 45.7104 65.1984V122.257C52.118 126.003 59.2359 128.379 66.6039 129.214C65.7186 127.469 65.2484 125.568 65.1984 123.637V77.7335C64.4981 77.0332 64.4981 60.3264 72.1562 45.7355ZM154.925 72.1512V65.1934C154.95 54.434 146.226 45.7054 135.462 45.7305H79.114C75.3675 52.113 72.9915 59.2309 72.1562 66.5989C73.5618 65.1934 75.6526 65.1934 77.7335 65.1934H122.957C123.662 65.1934 140.339 65.1934 154.95 72.1512H154.925ZM127.809 154.945H134.767C145.526 154.945 154.28 146.221 154.255 135.457V79.109C147.847 75.3625 140.729 72.9865 133.386 72.1512C134.767 73.5318 134.767 75.6176 134.767 77.6984V122.922C134.767 123.627 134.767 140.329 127.809 154.915V154.945ZM45.0402 127.804V134.762C45.0152 145.521 53.7387 154.275 64.5031 154.25H120.851C124.598 147.867 126.973 140.749 127.809 133.381C126.428 134.762 124.342 134.762 122.262 134.762H77.0382C76.3579 134.762 59.6561 134.762 45.0452 127.804H45.0402ZM108.346 20H58.2455C37.3771 20 20.005 37.3721 20.005 58.2405C20.005 58.2405 21.3856 95.1105 35.9965 112.508C36.7018 113.888 38.0823 114.588 39.4629 115.969V64.5231C39.4379 50.2723 50.9726 38.7276 65.1984 38.7526H76.3229C78.4387 35.9915 80.5196 33.9107 82.6054 31.8248C88.853 26.9578 98.5969 22.7861 108.341 20H108.346ZM179.99 108.341V58.2405C179.99 37.3721 162.618 20 141.749 20C141.749 20 104.854 21.3806 87.4824 35.9915C85.9968 36.7718 84.7763 37.9723 83.996 39.4579H135.472C149.698 39.4329 161.242 50.9676 161.217 65.1934V76.3179C164.004 78.4337 166.084 80.5146 168.175 82.6004C173.042 88.848 177.214 98.5919 180 108.336L179.99 108.341ZM91.6441 179.985H141.744C162.588 179.985 179.985 162.583 179.985 141.714C179.985 141.714 178.579 104.844 163.993 87.4724C163.288 86.0668 161.908 85.3866 160.497 83.986V135.462C160.552 149.688 149.012 161.257 134.762 161.207H123.637C121.551 163.993 119.47 166.074 117.38 168.165C111.132 173.032 101.388 177.199 91.6441 179.985ZM20.005 91.6391V141.714C20.005 162.583 37.3771 179.985 58.2455 179.985C58.2455 179.985 95.1155 178.579 112.513 163.993C113.893 163.288 114.593 161.908 115.974 160.497H65.1984C50.9726 160.522 39.4329 148.987 39.4629 134.762V123.637C36.7018 121.551 34.5859 119.47 32.5051 117.38C26.9578 111.132 22.7861 101.388 20 91.6441L20.005 91.6391Z" fill="black"/>
</svg>
