<svg width="100" height="100" viewBox="0 0 100 100" fill="none" xmlns="http://www.w3.org/2000/svg">
<rect width="100" height="100" rx="50" fill="white"/>
<rect x="8.33334" y="8.33334" width="83.3333" height="83.3333" rx="41.6667" fill="black"/>
<path d="M70.1667 60.7959C70.1667 64.4025 69.3105 67.4554 67.5983 69.9547C65.9177 72.4223 63.3969 74.3047 60.0358 75.6018C56.6747 76.8673 52.4891 77.5 47.4792 77.5C43.7693 77.5 40.5825 77.2627 37.919 76.7882C35.2872 76.3136 32.6237 75.5227 29.9285 74.4154V62.4569C32.8139 63.754 35.9055 64.8296 39.2032 65.6838C42.5326 66.5063 45.4498 66.9176 47.9548 66.9176C50.7769 66.9176 52.7903 66.5063 53.9953 65.6838C55.2319 64.8296 55.8502 63.7223 55.8502 62.3619C55.8502 61.4761 55.5966 60.6852 55.0892 59.9892C54.6136 59.2616 53.5672 58.4548 51.9501 57.569C50.3329 56.6516 47.7962 55.4652 44.34 54.0099C41.0106 52.6179 38.2678 51.2101 36.1116 49.7865C33.9872 48.3628 32.4017 46.6861 31.3553 44.7563C30.3407 42.7948 29.8333 40.3113 29.8333 37.3059C29.8333 32.4022 31.7358 28.7166 35.5409 26.2489C39.3776 23.7496 44.4986 22.5 50.9037 22.5C54.2014 22.5 57.3405 22.8322 60.3211 23.4965C63.3335 24.1609 66.425 25.2207 69.5959 26.676L65.2201 37.116C62.5883 35.9771 60.0992 35.0439 57.7527 34.3162C55.438 33.5886 53.0757 33.2248 50.6659 33.2248C48.5414 33.2248 46.9401 33.5095 45.862 34.0789C44.7839 34.6484 44.2449 35.5184 44.2449 36.689C44.2449 37.5431 44.5144 38.3024 45.0535 38.9668C45.6242 39.6311 46.7023 40.3746 48.2877 41.1972C49.9049 41.9881 52.2672 43.0163 55.3746 44.2817C58.3869 45.5155 61.0029 46.8126 63.2225 48.173C65.4421 49.5017 67.1543 51.1626 68.3593 53.1557C69.5642 55.1172 70.1667 57.6639 70.1667 60.7959Z" fill="white"/>
</svg>
