<svg width="200" height="200" viewBox="0 0 200 200" fill="none" xmlns="http://www.w3.org/2000/svg">
<rect width="200" height="200" fill="#121C2D"/>
<path d="M162.564 91.5766H91.7794C89.0612 91.5766 86.7961 89.3176 86.7961 86.6067V78.1351C86.7961 75.4242 89.0612 73.1651 91.7794 73.1651H163.017C165.735 73.1651 168 75.4242 168 78.1351V86.6067C167.434 89.3176 165.282 91.5766 162.564 91.5766ZM108.768 127.27C111.486 127.27 113.751 125.011 114.091 122.752V114.28C114.091 111.57 111.826 109.31 109.107 109.31H37.9832C35.2651 109.31 33 111.57 33 113.829V122.3C33 125.011 35.2651 127.27 37.9832 127.27H108.768ZM59.9547 140.712C54.9715 140.712 51.0075 144.665 51.0075 149.635C51.0075 154.605 54.9715 158.558 59.9547 158.558C64.9379 158.558 68.9018 154.605 68.9018 149.635C68.9018 144.665 64.8247 140.712 59.9547 140.712ZM140.592 42.3286C135.609 42.3286 131.645 46.282 131.645 51.252C131.645 56.222 135.609 60.1753 140.592 60.1753C145.576 60.1753 149.539 56.222 149.539 51.252C149.539 46.3949 145.576 42.3286 140.592 42.3286ZM100.273 154.153C95.2903 154.153 90.4203 153.25 85.8901 151.894C83.625 151.442 81.3599 152.346 80.5671 154.605L77.396 163.077C76.4899 165.336 77.849 168.047 80.5671 168.837C86.7961 171.096 93.5914 172 100.273 172C129.38 172 154.523 154.605 165.735 129.529C166.641 127.27 165.735 124.22 163.017 123.317L154.523 120.154C152.258 119.25 149.992 120.154 149.2 122.413C140.592 141.164 122.245 154.153 100.273 154.153ZM100.273 46.8468C105.257 46.8468 110.127 47.7504 114.657 49.1059C116.922 49.5577 119.187 48.654 119.98 46.395L123.151 37.9234C124.057 35.6643 122.698 32.9534 119.98 32.1627C113.751 29.9036 106.956 29 100.273 29C71.1669 29 46.0243 46.3949 34.8121 71.4708C33.906 73.7299 34.8121 76.7796 37.5302 77.6833L46.0243 80.846C48.2894 81.7496 50.5545 80.846 51.3473 78.5869C59.9547 59.8365 78.302 46.8468 100.273 46.8468Z" fill="#25C365"/>
</svg>
