<svg width="200" height="200" viewBox="0 0 200 200" fill="none" xmlns="http://www.w3.org/2000/svg">
<rect width="200" height="200" fill="#EAF4FF"/>
<path d="M161.264 43.3457C161.131 42.4194 160.33 41.8899 159.663 41.8899C158.996 41.8899 145.79 41.6253 145.79 41.6253C145.79 41.6253 134.719 31.0371 133.652 29.8459C132.584 28.787 130.45 29.0518 129.65 29.3165C129.65 29.3165 127.516 29.9782 124.047 31.0371C123.514 29.1841 122.58 26.9341 121.379 24.5518C117.511 17.14 111.642 13.1694 104.705 13.1694C104.172 13.1694 103.772 13.1694 103.238 13.3017C102.971 13.0371 102.838 12.7723 102.571 12.64C99.503 9.46353 95.6346 7.87529 90.9659 8.00764C82.0286 8.27235 73.0913 14.7576 65.7546 26.14C60.6857 34.2135 56.8173 44.2724 55.6168 52.0811C45.3455 55.2578 38.1423 57.5078 37.8755 57.5078C32.6732 59.0959 32.5398 59.2282 31.8729 64.1254C31.6061 67.8313 18 172.258 18 172.258L132.184 191.846L181.673 179.669C181.54 179.669 161.397 44.2724 161.264 43.3457ZM118.311 32.89C115.644 33.6841 112.709 34.6106 109.507 35.6694C109.507 31.1694 108.841 24.8165 106.84 19.5224C113.643 20.5812 116.977 28.2576 118.311 32.89ZM103.505 37.3899C97.5021 39.243 90.9659 41.2284 84.4296 43.2134C86.2971 36.1988 89.7654 29.3165 94.0339 24.6841C95.6346 22.9635 97.9023 21.1106 100.437 20.0518C103.105 25.2135 103.638 32.4929 103.505 37.3899ZM91.2327 13.9635C93.367 13.9635 95.1011 14.3606 96.5684 15.4194C94.1673 16.6106 91.7663 18.4635 89.632 20.8459C83.8961 26.9341 79.4941 36.3312 77.76 45.4634C72.2909 47.1842 66.9552 48.7724 62.153 50.2283C65.3545 35.8018 77.4932 14.3606 91.2327 13.9635Z" fill="#95BF47"/>
<path d="M159.662 41.8911C158.995 41.8911 145.789 41.6265 145.789 41.6265C145.789 41.6265 134.717 31.0382 133.65 29.847C133.25 29.4499 132.716 29.1852 132.183 29.1852V191.847L181.672 179.671C181.672 179.671 161.529 44.2733 161.396 43.347C161.129 42.4206 160.329 41.8911 159.662 41.8911Z" fill="#5E8E3E"/>
<path d="M104.705 67.1707L98.9689 88.4796C98.9689 88.4796 92.566 85.5678 84.9626 86.097C73.7576 86.7588 73.7576 93.7736 73.7576 95.4941C74.4246 105.024 99.6358 107.141 101.103 129.509C102.17 147.112 91.7657 159.156 76.5589 160.083C58.4174 161.009 48.413 150.421 48.413 150.421L52.2814 134.141C52.2814 134.141 62.4192 141.685 70.4228 141.156C75.6251 140.891 77.626 136.524 77.3592 133.612C76.5589 121.171 56.0164 121.965 54.6824 101.45C53.6153 84.2442 64.9537 66.9058 90.0316 65.3176C99.7692 64.6558 104.705 67.1707 104.705 67.1707Z" fill="white"/>
</svg>
