<svg width="200" height="200" viewBox="0 0 200 200" fill="none" xmlns="http://www.w3.org/2000/svg">
<rect width="200" height="200" fill="#EAF4FF"/>
<path d="M41.9864 104.109C36.7319 104.149 32.2808 101.018 30.6396 96.1303C30.5787 95.9457 30.5219 95.7598 30.4693 95.5727C28.6808 89.3139 32.1488 82.7664 38.3645 80.6699L138.061 47.2692C139.244 46.9268 140.469 46.7479 141.702 46.7375C147.096 46.6954 151.669 49.8955 153.351 54.8861L153.5 55.3681C155.365 61.887 150.731 67.7058 145.179 69.5708C145.175 69.5737 144.165 69.9151 46.0358 103.419C44.7315 103.864 43.3644 104.097 41.9864 104.109Z" fill="#70CADB"/>
<path d="M58.6041 153.139C53.3084 153.177 48.842 150.09 47.2199 145.272C47.1584 145.089 47.101 144.905 47.0478 144.719C45.2344 138.385 48.6985 131.769 54.9353 129.67L154.635 95.9628C155.923 95.5325 157.254 95.3125 158.592 95.3001C163.902 95.2599 168.567 98.504 170.213 103.376L170.366 103.883C171.329 107.25 170.76 111.035 168.846 114.022C167.419 116.243 162.918 118.197 162.918 118.197L62.8391 152.417C61.4741 152.879 60.045 153.123 58.6041 153.141V153.139Z" fill="#E01765"/>
<path d="M141.597 153.352C139.013 153.377 136.487 152.583 134.382 151.085C132.277 149.586 130.699 147.459 129.877 145.009L96.6032 46.1742L96.4368 45.6195C94.6339 39.3167 98.1009 32.7424 104.315 30.6478C105.558 30.2299 106.843 30.0118 108.137 30.0003C110.06 29.986 111.92 30.4193 113.672 31.2848C115.116 31.9986 116.403 32.9906 117.462 34.2039C118.52 35.4172 119.329 36.8278 119.84 38.3546L153.111 137.181L153.207 137.499C155.076 144.043 151.617 150.621 145.403 152.715C144.176 153.125 142.891 153.34 141.597 153.352Z" fill="#E8A723"/>
<path d="M92.1386 169.999C89.5529 170.024 87.0258 169.23 84.9194 167.73C82.813 166.23 81.2355 164.102 80.413 161.65L47.1481 62.8185C46.6327 61.2938 46.4231 59.6824 46.5312 58.0765C46.6394 56.4707 47.0632 54.9019 47.7785 53.4601C48.4937 52.0182 49.4863 50.7316 50.6994 49.6739C51.9125 48.6162 53.3224 47.8081 54.8482 47.296C56.0774 46.8851 57.3635 46.6695 58.6595 46.6571C61.2441 46.6316 63.7705 47.4251 65.8764 48.9238C67.9823 50.4225 69.5596 52.5495 70.3822 54.9998L103.648 153.835C104.164 155.361 104.373 156.973 104.265 158.579C104.156 160.186 103.732 161.755 103.016 163.198C102.3 164.64 101.306 165.927 100.092 166.984C98.8773 168.042 97.4663 168.849 95.9394 169.361C94.7125 169.772 93.4286 169.987 92.1348 169.998L92.1386 169.999Z" fill="#3EB890"/>
<path d="M125.194 131.095L148.395 123.162L140.81 100.639L117.583 108.488L125.194 131.095Z" fill="#CC2027"/>
<path d="M75.8118 147.979L99.0105 140.048L91.3687 117.352L68.1471 125.204L75.8118 147.979Z" fill="#361238"/>
<path d="M108.677 82.0348L131.879 74.1128L124.384 51.8524L101.138 59.6405L108.677 82.0348Z" fill="#65863A"/>
<path d="M59.2888 98.8962L82.4913 90.9743L74.9041 68.4298L51.6586 76.2169L59.2888 98.8962Z" fill="#1A937D"/>
</svg>
