<svg width="200" height="200" viewBox="0 0 200 200" fill="none" xmlns="http://www.w3.org/2000/svg">
<rect width="200" height="200" fill="black"/>
<path d="M62.7179 103.718L103.136 63.3429C105.866 60.6269 109.561 59.1023 113.412 59.1023C117.264 59.1023 120.958 60.6269 123.689 63.3429L126.83 66.484L133.126 60.1876L129.985 57.0322C125.581 52.6372 119.613 50.1689 113.391 50.1689C107.169 50.1689 101.201 52.6372 96.7962 57.0322L56.4071 97.4212L62.7179 103.718Z" fill="white"/>
<path d="M116.675 76.6384L110.379 70.342L69.9466 110.774C67.2154 113.503 63.5119 115.036 59.6507 115.035C55.7895 115.033 52.087 113.498 49.3577 110.767C46.6284 108.036 45.0958 104.332 45.0971 100.471C45.0985 96.6098 46.6336 92.9073 49.3648 90.1779L84.2463 55.2965L77.9499 49L43.0684 83.8815C40.8478 86.0506 39.0797 88.6387 37.8665 91.4959C36.6532 94.3532 36.019 97.4227 36.0004 100.527C35.9819 103.631 36.5794 106.708 37.7585 109.579C38.9375 112.451 40.6746 115.06 42.8691 117.255C45.0636 119.451 47.6719 121.189 50.5429 122.369C53.4139 123.55 56.4906 124.149 59.5947 124.131C62.6988 124.114 65.7686 123.481 68.6264 122.269C71.4842 121.057 74.0731 119.29 76.2431 117.071L116.675 76.6384ZM156.921 83.8815C152.515 79.49 146.547 77.0241 140.326 77.0241C134.105 77.0241 128.138 79.49 123.732 83.8815L83.2997 124.314L89.5962 130.61L130.028 90.1779C132.065 88.1452 134.658 86.7617 137.481 86.2022C140.304 85.6426 143.229 85.9321 145.887 87.034C148.545 88.136 150.817 90.0009 152.416 92.3934C154.015 94.7859 154.869 97.5985 154.87 100.476C154.877 102.393 154.5 104.292 153.761 106.061C153.022 107.83 151.936 109.432 150.567 110.774L115.729 145.656L122.039 151.952L156.921 117.071C161.316 112.666 163.784 106.698 163.784 100.476C163.784 94.2539 161.316 88.2859 156.921 83.8815Z" fill="white"/>
<path d="M137.271 97.2346L96.8391 137.652C94.1049 140.378 90.4017 141.908 86.5411 141.908C82.6804 141.908 78.9772 140.378 76.243 137.652L73.1019 134.497L66.8055 140.793L69.9465 143.949C74.3528 148.34 80.3201 150.806 86.5411 150.806C92.762 150.806 98.7293 148.34 103.136 143.949L143.568 103.502L137.271 97.2346Z" fill="white"/>
</svg>
