<svg width="200" height="200" viewBox="0 0 200 200" fill="none" xmlns="http://www.w3.org/2000/svg">
<rect width="200" height="200" fill="#EAF4FF"/>
<path d="M176.651 20H71.1659V73.5658H123.069C124.919 73.5658 126.419 75.0851 126.419 76.9579V128.8H180V23.3982C180.002 22.4975 179.649 21.6332 179.021 20.9957C178.393 20.3582 177.54 20 176.651 20Z" fill="#8E75FF"/>
<path opacity="0.405" d="M71.1598 20V73.5658H21.6747C20.9948 73.5646 20.3827 73.1478 20.1251 72.5104C19.8675 71.8731 20.0152 71.1413 20.4992 70.6575L71.1598 20ZM129.272 179.513C128.79 179.992 128.072 180.132 127.449 179.868C126.826 179.604 126.42 178.988 126.419 178.304V128.8H180L129.272 179.507V179.513Z" fill="#8E75FF"/>
<path opacity="0.405" d="M71.1596 73.5659H124.747C125.665 73.5659 126.419 74.3225 126.419 75.2588V128.8H74.515C72.6653 128.8 71.1658 127.281 71.1658 125.408V73.5659H71.1596Z" fill="#8E75FF"/>
</svg>
