<svg width="200" height="200" viewBox="0 0 200 200" fill="none" xmlns="http://www.w3.org/2000/svg">
<rect width="200" height="200" fill="#4353FF"/>
<g clip-path="url(#clip0_200_189)">
<path d="M66.7052 95.1603C66.7052 91.6674 63.4252 87.9547 57.7501 87.9547C51.3782 87.9547 44.3771 92.7995 43.3067 102.465C42.2138 112.226 48.0757 116.564 53.9826 116.564C59.8908 116.564 62.9841 114.177 66.1475 110.996C63.4252 107.453 59.9134 109.093 59.2391 109.454C58.4946 109.84 57.5408 110.37 55.5881 110.37C53.3071 110.37 50.9821 109.31 50.9821 104.899C65.5885 103.404 66.7052 98.6556 66.7052 95.1615V95.1603ZM59.4722 95.7395C59.3782 96.825 58.9596 98.6795 51.5637 99.716C53.1216 93.9805 56.0995 93.547 57.4719 93.547C58.7503 93.547 59.565 94.5836 59.4722 95.7395ZM34.7251 96.6793C34.7251 96.6793 31.5843 106.899 31.3286 107.743C31.2359 106.875 28.9335 88.5327 28.9335 88.5327C23.583 88.5327 20.7229 92.4854 19.2114 96.6554C19.2114 96.6554 15.3962 106.899 15.0704 107.767C15.0478 106.972 14.4888 96.776 14.4888 96.776C14.163 91.6674 9.65096 88.5578 6 88.5578L10.4193 116.347C16.0242 116.322 19.0485 112.394 20.6302 108.224C20.6302 108.224 24.0016 99.1858 24.142 98.7762C24.1646 99.1619 26.5609 116.347 26.5609 116.347C32.1884 116.347 35.2127 112.66 36.8408 108.634L44.7255 88.5566C39.167 88.5566 36.2367 92.4854 34.7239 96.6793H34.7251ZM87.3589 87.907C83.8934 87.907 81.2426 89.8582 79.0092 92.7266V92.7027L81.0095 76C76.4035 76 72.6598 80.1462 71.9379 86.3151L68.4498 116.13C71.1006 116.13 73.9144 115.334 75.4271 113.31C76.7757 115.118 78.7986 116.564 81.8003 116.564C89.5685 116.564 94.8952 107.213 94.8952 98.4395C94.8475 90.4362 91.1038 87.907 87.3589 87.907ZM86.6382 102.248C85.8235 107.14 83.1953 110.466 80.6598 110.466C78.103 110.466 77.0089 109.285 77.0089 109.285C77.4977 104.995 77.7985 102.368 78.7297 100.102C79.6597 97.8364 81.8693 94.2217 84.1729 94.2217C86.4289 94.2217 87.4516 97.3301 86.6382 102.248ZM114.293 88.5578H108.874L108.896 88.2688C109.268 84.6039 110.106 82.6766 112.874 82.3637C114.758 82.1702 115.594 81.1576 115.805 80.0494C115.967 79.1825 116.479 76.1684 116.479 76.1684C105.594 76.0967 102.175 80.9653 101.291 88.3882L101.267 88.5578H101.152C99.3846 88.5578 97.4294 90.6309 97.1036 93.2568L96.9882 94.2217H100.617L97.5685 120.3L96.6373 124.976C96.7539 124.976 96.8942 125 97.0095 125C102.104 124.807 105.361 120.638 106.081 114.588L108.454 94.2217H110.152C111.828 94.2217 113.78 92.4854 114.13 89.5931L114.293 88.5578ZM142.482 88.0754C136.225 88.0754 130.318 92.8472 128.503 100.343C126.69 107.839 129.433 116.709 138.644 116.709C147.831 116.709 153.135 107.478 153.135 99.7889C153.135 92.1486 148.134 88.0754 142.482 88.0754ZM145.017 102.006C144.691 105.405 143.25 110.563 139.296 110.563C135.319 110.563 135.877 104.537 136.271 101.668C136.69 98.6078 138.342 94.2456 141.9 94.2456C145.087 94.2456 145.389 98.1744 145.017 102.006ZM184.045 96.6793C184.045 96.6793 180.905 106.899 180.65 107.743C180.557 106.875 178.254 88.5327 178.254 88.5327C172.904 88.5327 170.044 92.4854 168.532 96.6554C168.532 96.6554 164.717 106.899 164.391 107.767C164.369 106.972 163.81 96.776 163.81 96.776C163.485 91.6662 158.972 88.5578 155.321 88.5578L159.716 116.347C165.322 116.322 168.346 112.394 169.927 108.224C169.927 108.224 173.3 99.1858 173.417 98.7762C173.439 99.1619 175.835 116.347 175.835 116.347C181.464 116.347 184.487 112.66 186.115 108.634L194 88.5566C188.464 88.5566 185.534 92.4854 184.045 96.6793ZM119.41 76.1684L114.851 114.275L113.921 118.974C114.036 118.974 114.176 118.999 114.293 118.999C119.2 118.927 122.689 114.468 123.34 108.851L125.968 86.9898C126.759 80.3158 122.923 76.1696 119.409 76.1696L119.41 76.1684Z" fill="white"/>
</g>
<defs>
<clipPath id="clip0_200_189">
<rect width="188" height="49" fill="white" transform="translate(6 76)"/>
</clipPath>
</defs>
</svg>
