<svg width="200" height="200" viewBox="0 0 200 200" fill="none" xmlns="http://www.w3.org/2000/svg">
<rect width="200" height="200" fill="black"/>
<g clip-path="url(#clip0_200_193)">
<path d="M113.023 66.3312C109.55 68.0675 108.045 71.3087 108.045 80.1061C108.045 80.1061 109.781 78.3698 112.559 77.328C114.585 76.5756 116.032 75.5916 117.074 74.8392C120.084 72.582 120.547 69.8617 120.547 65.1158C120.489 65.1158 115.743 64.8264 113.023 66.3312Z" fill="#FBBD71"/>
<path d="M91.7814 68.3569C88.7717 70.8457 88.0193 75.1286 88.0193 75.1286L78.2958 112.402L70.3087 81.9003C69.5563 78.6592 68.0514 74.6656 65.7942 71.8875C63.0161 68.3569 57.2283 68.1254 56.5338 68.1254C56.0129 68.1254 50.283 68.3569 47.2733 71.8875C45.0161 74.6656 43.5113 78.6592 42.7588 81.9003L35.2347 112.402L25.5113 75.1286C25.5113 75.1286 24.7588 71.135 21.7492 68.3569C17.0032 64.074 10 65.1158 10 65.1158L28.5209 134.859C28.5209 134.859 34.5402 135.379 37.5498 133.875C41.5434 131.849 43.5691 130.402 45.8264 120.852C48.0836 112.344 54.1029 87.5723 54.5659 85.836C54.7974 85.0836 55.3183 82.8264 56.8232 82.8264C58.328 82.8264 58.8489 84.8521 59.0804 85.836C59.6013 87.5723 65.5627 112.344 67.8199 120.852C70.3087 130.344 72.045 131.849 76.0965 133.875C79.1061 135.379 85.1254 134.859 85.1254 134.859L103.531 65.1158C103.531 65.1158 96.5273 64.1318 91.7814 68.3569Z" fill="white"/>
<path d="M120.489 76.3441C120.489 76.3441 119.215 78.0804 116.727 79.5852C114.99 80.5691 113.486 81.09 111.749 82.074C108.74 83.5788 107.987 85.0836 107.987 87.3408V88.0932V91.8553V92.6077V134.627C107.987 134.627 112.733 135.148 115.743 133.643C119.736 131.617 120.489 129.65 120.489 121.141V79.1222V76.3441Z" fill="white"/>
<path d="M166.502 100.132L190 65.3473C190 65.3473 180.277 63.6109 175.241 68.1254C172 70.9035 168.759 76.1125 168.759 76.1125L160.251 88.6141C159.73 89.3666 159.267 89.8875 158.514 89.8875C157.762 89.8875 157.01 89.135 156.778 88.6141L148.27 76.1125C148.27 76.1125 144.797 71.1351 141.788 68.1254C136.81 63.6109 127.029 65.3473 127.029 65.3473L149.775 100.074L126.508 134.801C126.508 134.801 136.752 136.074 141.788 131.559C145.029 128.781 148.039 124.035 148.039 124.035L156.547 111.534C157.068 110.781 157.531 110.26 158.283 110.26C159.035 110.26 159.788 111.013 160.019 111.534L168.527 124.035C168.527 124.035 171.769 128.781 174.778 131.559C179.756 136.074 189.769 134.801 189.769 134.801L166.502 100.132Z" fill="white"/>
</g>
<defs>
<clipPath id="clip0_200_193">
<rect width="180" height="70.0322" fill="white" transform="translate(10 65)"/>
</clipPath>
</defs>
</svg>
