<svg width="200" height="200" viewBox="0 0 200 200" fill="none" xmlns="http://www.w3.org/2000/svg">
<rect width="200" height="200" fill="#FF4A00"/>
<path d="M17 122.382L34.9644 94.3887H19.1169C18.97 93.5112 18.9113 92.6211 18.9415 91.7319C18.9129 90.8426 18.9717 89.9527 19.1169 89.0751H44.6551L44.9925 89.9607L26.8492 117.954H43.778C43.9249 118.831 43.9836 119.721 43.9534 120.611C43.9893 121.441 43.9304 122.274 43.778 123.091H17.1771L17 122.382ZM68.611 100.768C68.709 99.7653 68.5862 98.7535 68.2512 97.8043C67.9162 96.8552 67.3773 95.9919 66.6729 95.276C64.9702 94.0991 62.9213 93.5369 60.8602 93.6812C59.3861 93.7041 57.9149 93.8225 56.456 94.0358C55.1431 94.2271 53.8475 94.5233 52.5814 94.9214C51.6808 93.3018 51.254 91.4592 51.35 89.6061C52.9488 89.065 54.6034 88.7082 56.2822 88.5424C58.0277 88.2481 59.798 88.1293 61.567 88.1878C65.1628 87.9615 68.7215 89.0289 71.6068 91.1992C73.8975 93.1502 75.1288 96.5144 75.1288 100.942V122.378L69.4916 123.442C67.2785 123.795 65.0384 123.973 62.7983 123.973C60.8484 123.99 58.9187 123.81 56.9856 123.442C55.3943 123.121 53.8914 122.456 52.5814 121.493C51.3722 120.63 50.402 119.472 49.7627 118.127C49.0232 116.581 48.6606 114.881 48.7051 113.166C48.6306 111.428 49.0583 109.705 49.9365 108.205C50.6474 106.752 51.7452 105.526 53.1077 104.663C54.5288 103.744 56.0702 103.029 57.6873 102.537C59.4618 102.028 61.3021 101.791 63.1475 101.828C64.3244 101.784 65.5028 101.843 66.6695 102.004C67.5501 102.004 68.2551 102.181 68.9602 102.181V100.764L68.611 100.768ZM68.611 107.147C67.7811 107.102 66.9563 106.988 66.1449 106.807C65.0873 106.807 64.2051 106.631 63.5034 106.631C61.2768 106.497 59.0631 107.054 57.161 108.226C56.4657 108.765 55.9104 109.466 55.5424 110.268C55.1744 111.07 55.0046 111.95 55.0475 112.832C54.9481 113.809 55.1272 114.794 55.5639 115.673C56.0006 116.551 56.6768 117.286 57.5136 117.793C58.269 118.22 59.1138 118.463 59.9797 118.502C60.7939 118.643 61.62 118.702 62.4458 118.678C63.5059 118.708 64.5666 118.649 65.617 118.502L68.4339 117.971V107.164L68.611 107.147ZM82.35 89.0751C82.878 89.0751 83.2305 88.8986 83.7585 88.8986H86.5755C87.1034 88.8986 87.456 89.0751 87.984 89.0751C88.0797 89.3615 88.1387 89.6592 88.1594 89.9607C88.1594 90.4917 88.3348 90.8463 88.3348 91.3773C88.3348 91.9083 88.5102 92.441 88.5102 92.972C88.5052 93.2774 88.5659 93.5777 88.6857 93.8576L90.2713 91.7319C90.9557 91.0447 91.7257 90.4493 92.5619 89.9607C94.6122 88.8205 96.9125 88.2118 99.2552 88.1895C101.111 88.1657 102.986 88.5288 104.715 89.2532C106.414 89.9404 107.92 91.0355 109.101 92.4427C110.384 94.0074 111.342 95.8147 111.92 97.758C112.664 100.226 113.021 102.796 112.977 105.376C113.259 110.431 111.55 115.395 108.222 119.194C105.051 122.56 100.632 124.155 94.8357 124.155C93.8345 124.184 92.8326 124.125 91.8417 123.978C90.7846 123.801 89.9041 123.624 89.2001 123.447V139.215C88.6722 139.215 88.1425 139.391 87.4391 139.391H84.2679C83.74 139.391 83.2103 139.215 82.6824 139.215V89.0751H82.35ZM88.8662 117.777C89.7228 118.096 90.6071 118.333 91.5077 118.486C92.6744 118.648 93.8529 118.707 95.0297 118.663C96.5479 118.702 98.0221 118.459 99.4154 117.954C100.718 117.505 101.875 116.709 102.762 115.65C103.766 114.443 104.543 113.062 105.053 111.575C105.657 109.686 105.954 107.712 105.933 105.728C106.044 102.772 105.375 99.8382 103.995 97.2253C103.324 96.1656 102.38 95.309 101.263 94.7473C100.146 94.1855 98.898 93.9396 97.6527 94.0358C96.574 94.0391 95.5031 94.2184 94.4815 94.5668C93.4786 94.9476 92.5752 95.5533 91.84 96.338C90.9965 97.1983 90.3369 98.2231 89.9019 99.3494C89.3704 100.756 89.1304 102.257 89.1968 103.76V117.757L88.8662 117.777ZM120.925 94.1953H116.54C116.382 93.803 116.322 93.3778 116.364 92.9568V90.1235C116.364 89.5925 116.54 89.2379 116.54 88.8851H127.285V123.254C126.757 123.254 126.227 123.43 125.699 123.43H122.528C122 123.43 121.47 123.254 120.942 123.254L120.925 94.1953ZM141.535 107.836C141.71 111.556 142.592 114.391 144.352 115.986C146.6 117.909 149.512 118.864 152.455 118.643C155.52 118.66 158.565 118.122 161.439 117.048C161.865 117.821 162.163 118.659 162.32 119.528C162.521 120.46 162.64 121.408 162.674 122.361C161.158 123.043 159.559 123.519 157.919 123.778C156.003 124.146 154.039 124.324 152.106 124.309C149.409 124.416 146.716 123.995 144.178 123.071C142.141 122.11 140.292 120.791 138.718 119.174C137.255 117.544 136.172 115.607 135.547 113.504C134.826 111.212 134.469 108.821 134.489 106.417C134.499 104.028 134.793 101.667 135.37 99.3307C135.975 97.2562 136.994 95.3271 138.364 93.6608C139.764 92.078 141.434 90.7767 143.296 89.7639C145.604 88.6576 148.138 88.1114 150.694 88.1691C152.687 88.0819 154.674 88.4512 156.505 89.2491C158.336 90.047 159.962 91.2527 161.262 92.7752C162.515 94.1992 163.419 95.8979 163.904 97.736C164.565 99.7939 164.865 101.952 164.784 104.115V106.066C164.784 106.775 164.609 107.305 164.609 107.837L141.535 107.836ZM158.445 102.875C158.455 101.673 158.277 100.478 157.917 99.3324C157.555 98.2813 157.083 97.2718 156.509 96.321C155.859 95.432 155.015 94.7048 154.042 94.1953C152.944 93.6724 151.734 93.4289 150.52 93.4861C149.376 93.4278 148.232 93.6193 147.168 94.0474C146.104 94.4755 145.144 95.1302 144.355 95.9665C142.796 97.9456 141.874 100.356 141.714 102.877L158.445 102.875ZM172.184 89.0581C172.712 89.0581 173.065 88.8817 173.592 88.8817H176.409C176.937 88.8817 177.29 89.0581 177.818 89.0581C178.045 89.9254 178.164 90.818 178.17 91.7149C178.313 92.6521 178.372 93.6004 178.346 94.5481C179.244 92.9649 180.514 91.6269 182.045 90.6512C183.78 89.5462 185.805 88.9907 187.858 89.0564H188.915C189.22 89.011 189.532 89.0734 189.796 89.2328C189.796 89.5722 189.971 90.1185 189.971 90.4713V91.888C190 92.4256 189.941 92.9644 189.796 93.4827C189.796 94.0137 189.62 94.5464 189.62 95.0775C189.283 95.0775 188.915 94.901 188.563 94.901H187.682C186.545 94.8902 185.414 95.0697 184.336 95.432C183.213 95.7783 182.188 96.385 181.342 97.2032C180.361 98.1938 179.636 99.4097 179.228 100.746C178.677 102.582 178.438 104.499 178.523 106.416V123.444C177.995 123.444 177.465 123.62 176.937 123.62H173.766C173.238 123.62 172.535 123.444 172.005 123.444V89.0751L172.184 89.0581ZM133.607 68.8793H127.106L131.686 64.2732C131.348 63.7422 130.981 63.3876 130.628 62.8566C130.122 62.4881 129.65 62.0735 129.219 61.6181L124.626 66.2191V59.8231C124.051 59.6769 123.458 59.6175 122.865 59.6467C122.273 59.6086 121.678 59.6682 121.104 59.8231V66.3786L116.348 61.5943C115.801 61.9098 115.322 62.3314 114.939 62.8345C114.602 63.3655 114.059 63.7201 113.708 64.2511L118.287 68.8573H111.925L111.749 70.6285C111.71 71.2302 111.769 71.8343 111.925 72.4166H118.443L113.686 77.2009C114.382 78.2528 115.28 79.1587 116.327 79.8577L120.907 75.2516V81.807C121.482 81.9533 122.076 82.0127 122.668 81.9835C123.261 82.0216 123.855 81.962 124.429 81.807V75.2516L129.009 79.8577C129.555 79.5422 130.034 79.1207 130.417 78.6175C130.871 78.1856 131.284 77.7113 131.648 77.2009L127.106 72.5982H133.624C133.769 72.0198 133.828 71.4228 133.799 70.827C133.836 70.1715 133.777 69.5141 133.624 68.8759L133.607 68.8793ZM125.503 70.6505C125.487 71.4309 125.368 72.2056 125.149 72.9544C124.424 73.2429 123.64 73.3616 122.859 73.2938C122.083 73.2772 121.312 73.1574 120.568 72.9375C120.281 72.208 120.163 71.4191 120.231 70.6336C120.247 69.8532 120.366 69.0785 120.585 68.3296C121.31 68.0412 122.094 67.9225 122.875 67.9903C123.651 68.0068 124.422 68.1266 125.166 68.3466C125.369 69.0988 125.488 69.8717 125.519 70.6505H125.503Z" fill="white"/>
</svg>
