<svg width="200" height="200" viewBox="0 0 200 200" fill="none" xmlns="http://www.w3.org/2000/svg">
<rect width="200" height="200" fill="#FA0F00"/>
<g clip-path="url(#clip0_200_209)">
<path d="M8 34.5202C8 18.23 21.23 5 37.5202 5H167.476C183.766 5 196.996 18.23 196.996 34.5202V164.476C196.996 180.766 183.766 193.996 167.476 193.996H37.5202C21.23 193.996 8 180.766 8 164.476V34.5202Z" fill="#FA0F00"/>
<path d="M37.5202 5H167.476C183.766 5 196.996 18.23 196.996 34.5202V164.476C196.996 180.766 183.766 193.996 167.476 193.996H37.5202C21.23 193.996 8 180.766 8 164.476V34.5202C8 18.23 21.23 5 37.5202 5Z" fill="#FA0F00"/>
<path d="M117.432 47.7133L162.866 151.287H130.621L102.537 87.215L85.4125 126.263H105.483L116.446 151.287H42.1308L87.5646 47.7133H117.432Z" fill="white"/>
</g>
<defs>
<clipPath id="clip0_200_209">
<rect width="189" height="189" fill="white" transform="translate(8 5)"/>
</clipPath>
</defs>
</svg>
