<svg width="200" height="200" viewBox="0 0 200 200" fill="none" xmlns="http://www.w3.org/2000/svg">
<rect width="200" height="200" fill="#6B3DED"/>
<path d="M143.7 96.8H57.3C55.1 96.8 53.3 95 53.3 92.8V86.7C53.3 79.8 58.9 74.2 65.8 74.2H135.1C142 74.2 147.6 79.8 147.6 86.7V92.8C147.7 95 145.9 96.8 143.7 96.8Z" fill="white"/>
<path d="M125.5 67.6H75.5C73.3 67.6 71.4 65.8 71.4 63.5C71.4 53.3 79.7 45 89.9 45H111.1C121.3 45 129.6 53.3 129.6 63.5C129.6 65.8 127.8 67.6 125.5 67.6Z" fill="white"/>
<path d="M147.7 103.4H53.3C47.1 103.4 42 108.5 42 114.7C42 120.9 47.1 126 53.3 126H86.8C88 119.6 93.6 114.7 100.4 114.7C107.2 114.7 112.9 119.6 114.1 126H147.6C153.8 126 158.9 120.9 158.9 114.7C158.9 108.5 153.9 103.4 147.7 103.4Z" fill="white"/>
<path d="M143.6 132.6H114.3V155.2H136.3C142.5 155.2 147.6 150.1 147.6 143.9V136.7C147.7 134.5 145.9 132.6 143.6 132.6Z" fill="white"/>
<path d="M57.3 132.6C55.1 132.6 53.2 134.4 53.2 136.7V143.9C53.2 150.1 58.3 155.2 64.5 155.2H86.5V132.6C86.6 132.6 57.3 132.6 57.3 132.6Z" fill="white"/>
</svg>
