<svg width="200" height="200" viewBox="0 0 200 200" fill="none" xmlns="http://www.w3.org/2000/svg">
<rect width="200" height="200" fill="#34313F"/>
<g clip-path="url(#clip0_200_226)">
<path fill-rule="evenodd" clip-rule="evenodd" d="M61.8326 106.751C61.112 105.769 59.8869 104.966 58.4032 104.966C55.6551 104.966 53.6733 107.073 53.6733 109.926C53.6733 112.78 55.6551 114.886 58.4032 114.886C59.6871 114.886 60.8871 114.337 61.5147 113.789C61.5569 113.752 61.5785 113.699 61.5785 113.643V112.095C61.5785 111.998 61.5002 111.919 61.4033 111.919H57.8689C57.7283 111.919 57.6144 111.804 57.6144 111.663V109.367C57.6144 109.225 57.7283 109.111 57.8689 109.111H64.206V105.702L62.1599 106.828C62.051 106.888 61.9064 106.851 61.8326 106.751ZM32.084 108.364H35.8589C36.9399 108.364 37.6158 107.752 37.6158 106.778C37.6158 105.849 36.9399 105.193 35.8589 105.193H32.084C31.9545 105.193 31.85 105.298 31.85 105.428V108.128C31.85 108.258 31.9545 108.364 32.084 108.364ZM47.4312 117.258C47.4312 117.374 47.3373 117.468 47.2218 117.468H44.4427C44.3267 117.468 44.2328 117.374 44.2328 117.258V102.573C44.2328 102.457 44.3267 102.362 44.4427 102.362H47.2218C47.3373 102.362 47.4312 102.457 47.4312 102.573V117.258ZM63.4073 82.0982L35.8456 102.362H36.5571C39.4176 102.362 40.8812 104.196 40.8812 106.212C40.8812 107.78 40.0663 108.938 38.9727 109.45C38.7909 109.535 38.7975 109.794 38.9832 109.87C40.2581 110.395 41.1744 111.767 41.1744 113.369C41.1744 115.656 39.6877 117.468 36.8051 117.468H28.8858C28.7563 117.468 28.6514 117.363 28.6514 117.233V107.651L8.20654 122.683C7.81489 122.971 8.01724 123.595 8.50328 123.595H63.704C63.9812 123.595 64.2061 123.369 64.2061 123.09V115.488C62.7289 116.873 60.7868 117.74 58.4028 117.74C53.9887 117.74 50.3851 114.683 50.3851 109.926C50.3851 105.147 53.9887 102.113 58.4028 102.113C61.1784 102.113 63.0377 103.377 64.2061 104.922V82.5056C64.2061 82.0926 63.7392 81.8543 63.4073 82.0982ZM32.084 114.637H35.9939C37.1874 114.637 37.908 114.003 37.908 112.916C37.908 111.965 37.2331 111.195 35.9939 111.195H32.084C31.9545 111.195 31.85 111.3 31.85 111.43V114.402C31.85 114.532 31.9545 114.637 32.084 114.637ZM80.226 114.179L78.5033 113.281C78.3923 113.222 78.2522 113.265 78.1849 113.371C77.4564 114.52 76.1122 115.372 74.6516 115.372C71.784 115.372 69.6551 113.062 69.6551 109.914C69.6551 106.721 71.784 104.456 74.6516 104.456C76.1112 104.456 77.4549 105.287 78.1839 106.452C78.2517 106.56 78.3933 106.602 78.5058 106.541L80.2154 105.604C80.3455 105.533 80.3912 105.37 80.3113 105.244C79.2298 103.532 77.4388 102.1 74.6516 102.1C70.3716 102.1 67.0477 105.249 67.0477 109.914C67.0477 114.557 70.3716 117.728 74.6516 117.728C77.4358 117.728 79.2062 116.258 80.3244 114.545C80.4093 114.416 80.3626 114.25 80.226 114.179ZM89.2057 115.372C86.2699 115.372 84.3995 113.017 84.3995 109.914C84.3995 106.789 86.2699 104.456 89.2057 104.456C92.1194 104.456 94.0114 106.789 94.0114 109.914C94.0114 113.017 92.1194 115.372 89.2057 115.372ZM87.1521 102.365C83.922 103.232 81.79 106.156 81.79 109.914C81.79 114.421 84.8564 117.728 89.2057 117.728C92.9092 117.728 95.705 115.306 96.434 111.782C97.6215 106.042 92.611 100.898 87.1521 102.365ZM114.662 102.35H111.365C111.218 102.35 111.087 102.44 111.033 102.577L107.046 112.942L103.036 102.576C102.982 102.44 102.851 102.35 102.704 102.35H99.4067C99.3093 102.35 99.2299 102.43 99.2299 102.528V117.279C99.2299 117.376 99.3093 117.456 99.4067 117.456H101.689C101.786 117.456 101.865 117.376 101.865 117.279V105.792L106.451 117.376C106.47 117.424 106.517 117.456 106.569 117.456H107.523C107.574 117.456 107.621 117.424 107.64 117.376L112.203 105.792V117.279C112.203 117.376 112.282 117.456 112.38 117.456H114.662C114.76 117.456 114.838 117.376 114.838 117.279V102.528C114.838 102.43 114.76 102.35 114.662 102.35ZM148.362 102.35H138.612C138.462 102.35 138.34 102.472 138.34 102.623V117.183C138.34 117.334 138.462 117.456 138.612 117.456H148.362C148.512 117.456 148.634 117.334 148.634 117.183V115.397C148.634 115.246 148.512 115.123 148.362 115.123H141.248C141.098 115.123 140.976 115.001 140.976 114.85V111.184C140.976 111.033 141.098 110.91 141.248 110.91H148.205C148.355 110.91 148.477 110.788 148.477 110.637V108.851C148.477 108.7 148.355 108.578 148.205 108.578H141.248C141.098 108.578 140.976 108.456 140.976 108.305V104.956C140.976 104.805 141.098 104.682 141.248 104.682H148.362C148.512 104.682 148.634 104.56 148.634 104.409V102.623C148.634 102.472 148.512 102.35 148.362 102.35ZM158.641 109.484H155.283C155.135 109.484 155.014 109.363 155.014 109.213V104.953C155.014 104.803 155.135 104.682 155.283 104.682H158.641C160.126 104.682 161.208 105.611 161.208 107.061C161.208 108.533 160.126 109.484 158.641 109.484ZM160.708 111.444C162.39 111.018 163.91 109.57 163.91 107.083C163.91 104.275 161.951 102.35 158.978 102.35H152.648C152.499 102.35 152.379 102.471 152.379 102.621V117.185C152.379 117.335 152.499 117.456 152.648 117.456H154.745C154.893 117.456 155.014 117.335 155.014 117.185V112.087C155.014 111.938 155.135 111.817 155.283 111.817H157.496C157.591 111.817 157.679 111.867 157.728 111.949L160.882 117.323C160.93 117.405 161.019 117.456 161.114 117.456H163.537C163.748 117.456 163.879 117.224 163.766 117.043C163.071 115.926 161.161 112.858 160.533 111.849C160.433 111.689 160.526 111.49 160.708 111.444ZM184.607 104.682H191.735C191.882 104.682 192 104.563 192 104.416V102.616C192 102.469 191.882 102.35 191.735 102.35H181.972C181.826 102.35 181.707 102.469 181.707 102.616V117.189C181.707 117.337 181.826 117.456 181.972 117.456H191.735C191.882 117.456 192 117.337 192 117.189V115.39C192 115.243 191.882 115.124 191.735 115.124H184.607C184.461 115.124 184.342 115.004 184.342 114.857V111.177C184.342 111.03 184.461 110.91 184.607 110.91H191.578C191.724 110.91 191.843 110.791 191.843 110.644V108.844C191.843 108.697 191.724 108.578 191.578 108.578H184.607C184.461 108.578 184.342 108.459 184.342 108.311V104.949C184.342 104.801 184.461 104.682 184.607 104.682ZM179.018 114.116L177.295 113.218C177.184 113.16 177.044 113.202 176.977 113.308C176.248 114.457 174.904 115.31 173.444 115.31C170.576 115.31 168.447 113 168.447 109.851C168.447 106.658 170.576 104.393 173.444 104.393C174.903 104.393 176.247 105.225 176.976 106.389C177.044 106.497 177.185 106.539 177.298 106.478L179.007 105.542C179.137 105.47 179.183 105.307 179.103 105.181C178.022 103.469 176.231 102.037 173.444 102.037C169.164 102.037 165.84 105.186 165.84 109.851C165.84 114.494 169.164 117.665 173.444 117.665C176.227 117.665 177.998 116.195 179.116 114.483C179.201 114.353 179.155 114.187 179.018 114.116ZM134.119 102.35H130.822C130.675 102.35 130.544 102.44 130.49 102.577L126.503 112.942L122.493 102.576C122.439 102.44 122.308 102.35 122.161 102.35H118.864C118.766 102.35 118.687 102.43 118.687 102.528V117.279C118.687 117.376 118.766 117.456 118.864 117.456H121.146C121.243 117.456 121.323 117.376 121.323 117.279V105.792L125.908 117.376C125.927 117.424 125.974 117.456 126.026 117.456H126.98C127.031 117.456 127.078 117.424 127.097 117.376L131.66 105.792V117.279C131.66 117.376 131.739 117.456 131.837 117.456H134.119C134.217 117.456 134.295 117.376 134.295 117.279V102.528C134.295 102.43 134.217 102.35 134.119 102.35Z" fill="white"/>
</g>
<defs>
<clipPath id="clip0_200_226">
<rect width="184" height="42" fill="white" transform="translate(8 82)"/>
</clipPath>
</defs>
</svg>
