<svg width="200" height="200" viewBox="0 0 200 200" fill="none" xmlns="http://www.w3.org/2000/svg">
<rect width="200" height="200" fill="#23BEC7"/>
<g clip-path="url(#clip0_200_242)">
<path d="M100 200C155.229 200 200 155.229 200 100C200 44.7715 155.229 0 100 0C44.7715 0 0 44.7715 0 100C0 155.229 44.7715 200 100 200Z" fill="#23BEC7"/>
<path d="M102.328 101.686C105.253 99.1169 107.627 96.6969 110.758 95.3779C112.593 94.6095 114.623 93.5199 116.367 95.2059C118.11 96.8918 117.009 98.7384 116.481 100.551C115.426 104.186 114.359 107.833 113.396 111.492C113.109 112.559 112.628 113.786 113.717 114.738C114.807 115.69 116.172 115.059 117.25 114.509C121.241 112.467 124.487 110.047 123.982 104.679C123.684 101.468 123.982 98.0502 126.953 95.7564C128.1 94.8503 129.487 93.7952 130.944 94.8045C132.4 95.8137 131.357 97.0983 130.944 98.2452C129.535 102.571 129.142 107.163 129.797 111.664C129.946 112.673 129.797 114.13 130.726 114.497C131.999 114.979 132.573 113.35 133.387 112.685C134.201 112.02 134.752 111.079 135.463 110.299C137.344 108.246 138.376 106.606 135.876 103.796C132.974 100.551 133.846 94.1966 136.701 91.1802C137.486 90.2369 138.546 89.5635 139.733 89.2549C140.921 88.9462 142.175 89.0179 143.319 89.4598C145.808 90.3659 146.622 92.5106 146.691 95.0224C146.76 97.8438 145.544 100.321 144.592 103.051C147.368 103.75 149.088 102.191 150.648 100.505C154.41 96.4216 158.768 93.8296 164.549 94.4374C168.735 94.8733 171.132 97.1327 170.914 100.424C170.832 101.153 170.576 101.852 170.168 102.462C169.759 103.071 169.211 103.574 168.568 103.928C167.926 104.282 167.208 104.476 166.474 104.495C165.741 104.514 165.014 104.357 164.354 104.037C163.046 103.338 163.207 102.695 164.354 102.03C164.794 101.839 165.147 101.492 165.344 101.055C165.541 100.618 165.568 100.123 165.42 99.6674C165.24 99.1218 164.899 98.6431 164.443 98.2934C163.987 97.9437 163.436 97.7391 162.863 97.7062C161.283 97.4713 159.673 97.8309 158.344 98.7155C154.146 101.399 151.795 108.854 153.756 113.396C154.903 116.126 157.036 116.642 159.25 114.704C160.471 113.533 161.392 112.085 161.934 110.483C162.257 109.484 162.717 108.535 163.299 107.661C164.342 106.274 165.787 105.046 167.599 105.792C169.412 106.537 168.483 108.418 168.184 109.691C167.118 114.107 166.212 118.408 169.951 122.124C170.049 122.214 170.128 122.324 170.182 122.447C170.236 122.569 170.264 122.701 170.264 122.835C170.264 122.969 170.236 123.101 170.182 123.224C170.128 123.346 170.049 123.456 169.951 123.546C169.725 123.768 169.434 123.912 169.12 123.957C168.807 124.003 168.487 123.947 168.207 123.799C166.911 123.344 165.716 122.637 164.693 121.72C163.67 120.803 162.837 119.693 162.243 118.454C161.865 117.628 161.704 116.424 160.362 117.605C159.205 118.792 157.658 119.52 156.006 119.657C154.354 119.794 152.708 119.33 151.371 118.351C148.113 116.263 146.943 113.132 147.242 109.382C147.299 108.648 147.391 107.937 147.482 107.088C143.732 107.398 140.681 108.235 138.537 111.676C136.676 114.519 134.143 116.859 131.162 118.488C127.251 120.782 125.725 120.071 124.67 115.77C124.521 115.174 124.395 114.623 124.166 113.476C121.625 115.751 118.716 117.578 115.564 118.878C109.634 120.989 106.193 118.27 107.065 111.997C107.603 108.775 108.491 105.621 109.714 102.592C109.99 101.847 110.655 100.929 109.714 100.298C109.026 99.8624 108.304 100.596 107.765 101.055C104.106 104.163 100.883 107.604 99.828 112.524C99.5829 113.975 99.1671 115.392 98.5893 116.745C98.241 117.65 97.6003 118.412 96.7691 118.911C95.9378 119.41 94.9637 119.616 94.0016 119.498C91.9371 119.131 93.2676 117.02 92.6941 115.724C90.492 116.871 88.3817 118.018 86.2025 119.016C84.6313 119.739 82.5783 120.312 81.4314 118.959C79.516 116.665 78.22 117.456 76.2014 118.741C73.2538 120.622 69.8704 119.819 67.1981 116.711C65.8447 115.139 65.1451 115.243 63.8376 116.642C61.1901 119.373 58.0445 121.573 54.5705 123.122C40.9336 129.602 27.5261 122.331 26.7691 107.306C25.8745 90.3429 33.0887 76.8437 47.2646 67.4275C49.096 66.1555 51.1867 65.3055 53.3861 64.9386C55.5854 64.5718 57.8388 64.6971 59.9839 65.3057C62.5004 65.9636 64.7116 67.4723 66.242 69.5755C67.7723 71.6787 68.5276 74.2468 68.3794 76.8437C68.2123 79.335 67.2563 81.7084 65.6499 83.62C64.0435 85.5315 61.8702 86.882 59.4449 87.4756C58.6306 87.6591 57.5754 87.9803 57.151 87.2118C56.5088 86.1796 57.5295 85.48 58.2292 84.918C62.0599 81.6837 62.7136 77.4745 61.9911 72.8524C61.3029 68.54 58.2292 66.7967 54.1346 68.3679C51.1957 69.5876 48.6034 71.5141 46.5879 73.9764C39.8145 81.4606 35.5795 90.894 34.4879 100.929C33.9359 105.261 34.7075 109.659 36.7015 113.545C39.6146 119.108 44.5579 121.574 50.6595 120.128C55.4876 118.922 59.9185 116.479 63.5165 113.04C64.0206 112.513 64.4142 111.891 64.6742 111.209C64.9342 110.528 65.0553 109.801 65.0304 109.072C65.8676 100.356 73.4029 93.8181 81.8213 94.4604C83.852 94.5235 85.7862 95.3414 87.2462 96.7542C87.9401 97.4032 88.4154 98.2516 88.6065 99.1822C88.7975 100.113 88.6949 101.08 88.3129 101.95C87.4986 103.922 85.6864 104.565 83.6334 104.462C83.2041 104.508 82.7699 104.448 82.3697 104.286C81.9694 104.123 81.6155 103.865 81.3396 103.533C80.5826 102.386 82.0277 102.305 82.4865 101.732C83.7711 100.126 83.0485 98.2108 80.8464 97.7635C79.7568 97.5188 78.6218 97.5683 77.5576 97.9069C76.4935 98.2455 75.5385 98.861 74.7907 99.6903C73.2313 101.274 72.0691 103.204 71.3993 105.323C70.7294 107.442 70.571 109.69 70.937 111.882C71.1664 113.58 71.889 115.243 73.7584 115.747C75.6279 116.252 76.8437 114.853 77.9906 113.545C78.8397 112.46 79.453 111.21 79.7913 109.875C80.0657 108.62 80.7471 107.491 81.7296 106.664C82.8765 105.78 84.1381 105.058 85.4915 105.849C86.8448 106.641 86.019 107.971 86.019 109.072C86.019 111.091 83.8399 113.442 86.5351 114.99C87.9803 115.816 93.8066 111.423 94.2654 109.359C94.988 106.067 95.5729 102.741 96.2266 99.438C96.3071 98.2737 96.748 97.1633 97.4882 96.261C98.0454 95.6257 98.7831 95.1755 99.6028 94.9706C100.423 94.7657 101.285 94.8157 102.076 95.1141C103.808 95.8367 102.948 97.408 102.776 98.7384C102.684 99.5298 102.546 100.333 102.328 101.686ZM141.071 94.0475C140.773 93.2446 140.291 92.4647 139.305 92.568C138.319 92.6712 138.032 93.5772 137.952 94.426C137.825 95.6828 137.997 96.9516 138.454 98.1294C138.91 99.3072 139.638 100.361 140.578 101.204C141.661 98.972 141.838 96.4072 141.071 94.0475Z" fill="white"/>
</g>
<defs>
<clipPath id="clip0_200_242">
<rect width="200" height="200" fill="white"/>
</clipPath>
</defs>
</svg>
