<svg width="200" height="200" viewBox="0 0 200 200" fill="none" xmlns="http://www.w3.org/2000/svg">
<rect width="200" height="200" fill="#EAF4FF"/>
<path d="M158 171.07C157.998 173.495 157.034 175.82 155.319 177.535C153.604 179.25 151.279 180.214 148.854 180.216H51.2643C48.8392 180.216 46.5132 179.254 44.7971 177.54C43.0809 175.827 42.1148 173.502 42.111 171.077V28.2384C42.11 27.0361 42.3461 25.8454 42.8058 24.7345C43.2654 23.6235 43.9396 22.6141 44.7898 21.7639C45.6399 20.9137 46.6494 20.2395 47.7603 19.7799C48.8713 19.3202 50.062 19.0841 51.2643 19.0851H113.895L158 64.0648V171.07Z" fill="#23A566"/>
<path d="M118.748 62.8914L158 100.409V63.8024H123.23C121.712 63.8195 120.216 63.4429 118.887 62.7092L118.748 62.8914Z" fill="#1C8F5A"/>
<path d="M158 63.9919H123.136C120.71 63.9899 118.385 63.0257 116.67 61.3109C114.956 59.5961 113.991 57.2709 113.99 54.8458V18.8373L158 63.9919Z" fill="#8ED1B1"/>
<path fill-rule="evenodd" clip-rule="evenodd" d="M130.095 150.512H69.7897V98.2223H130.095V150.512ZM103.692 105.765V114.918H122.684V105.78L103.692 105.765ZM103.692 120.683V129.428H122.684V120.639L103.692 120.683ZM103.692 135.003V143.1H122.684V134.96L103.692 135.003ZM96.2367 143.056V134.96H77.2523V143.056H96.2367ZM96.2367 129.333V120.639H77.2523V129.377L96.2367 129.333ZM96.2367 115.013V105.765H77.2523V114.918L96.2367 115.013Z" fill="#EAF4FF"/>
</svg>
