<svg width="200" height="200" viewBox="0 0 200 200" fill="none" xmlns="http://www.w3.org/2000/svg">
<path d="M0 0V200H200V0H0ZM97.0833 28.475C102.9 28.475 110.133 30.275 110.133 39.1333V61.8C110.133 74.3 89.8583 74.575 89.8583 61.95V30.25C89.8608 29.9697 89.96 29.6988 90.1392 29.4832C90.3184 29.2675 90.5665 29.1204 90.8417 29.0667C92.0917 28.8333 94.4417 28.4667 97.0917 28.475H97.0833ZM142.983 43.1417C143.219 43.1485 143.448 43.2238 143.642 43.3583C147.042 45.6667 159.267 55 150.158 64.1083L134.092 80.1667C125.258 89 110.733 74.8333 119.65 65.9417L142.108 43.4833C142.224 43.3712 142.361 43.2833 142.512 43.2247C142.662 43.166 142.822 43.1378 142.983 43.1417ZM57.4 46.475C59.5917 46.5583 61.8833 47.5 64.1583 49.775L80.225 65.8583C89.0667 74.6833 74.8917 89.2167 66 80.275L43.55 57.8333C43.3503 57.6387 43.2258 57.3798 43.1983 57.1024C43.1709 56.8249 43.2423 56.5466 43.4 56.3167C45.1417 53.7583 50.825 46.2417 57.4 46.475ZM99.9333 85.225C99.9556 85.2249 99.9778 85.2249 100 85.225C102.922 85.225 105.779 86.0915 108.209 87.715C110.638 89.3385 112.532 91.6461 113.65 94.3459C114.769 97.0456 115.061 100.016 114.491 102.882C113.921 105.749 112.514 108.381 110.447 110.447C108.381 112.514 105.749 113.921 102.882 114.491C100.016 115.061 97.0456 114.769 94.3459 113.65C91.6461 112.532 89.3385 110.638 87.715 108.209C86.0915 105.779 85.225 102.922 85.225 100C85.225 96.0929 86.7725 92.3449 89.5289 89.576C92.2853 86.8071 96.0263 85.2426 99.9333 85.225ZM39.175 89.8083H61.9083C74.4 89.8083 74.675 110.083 62.05 110.083H30.3C30.02 110.084 29.7484 109.988 29.5323 109.809C29.3162 109.631 29.1692 109.383 29.1167 109.108C28.35 105.108 26.3083 89.8083 39.175 89.8083ZM138 89.8083H169.683C169.964 89.804 170.237 89.8996 170.454 90.0783C170.671 90.2569 170.817 90.5068 170.867 90.7833C171.642 94.7833 173.683 110.083 160.817 110.083H138.15C125.65 110.083 125.375 89.8083 138 89.8083ZM127.683 116.808C129.842 116.825 132.042 117.658 133.983 119.617L156.442 142.05C156.638 142.25 156.76 142.512 156.786 142.791C156.812 143.071 156.74 143.351 156.583 143.583C154.267 147 144.933 159.217 135.833 150.117L119.758 134.033C112.85 127.142 119.992 116.758 127.683 116.808ZM72.2083 116.917C79.9583 116.825 87.3 126.992 80.3333 133.95L57.8833 156.383C57.686 156.584 57.4242 156.709 57.1439 156.737C56.8636 156.764 56.5825 156.692 56.35 156.533C52.95 154.217 40.7167 144.883 49.825 135.783L65.8917 119.7C66.7096 118.843 67.6886 118.156 68.7726 117.679C69.8565 117.201 71.0241 116.942 72.2083 116.917ZM99.9917 128.608C105.058 128.55 110.133 131.642 110.133 137.958V169.642C110.13 169.92 110.03 170.189 109.851 170.401C109.672 170.614 109.424 170.758 109.15 170.808C105.15 171.583 89.85 173.625 89.85 160.758V138.092C89.85 131.85 94.925 128.658 99.9917 128.608Z" fill="black"/>
</svg>
