<svg width="200" height="200" viewBox="0 0 200 200" fill="none" xmlns="http://www.w3.org/2000/svg">
<rect width="200" height="200" fill="#FFE01B"/>
<path d="M56.8734 103.551C55.6424 103.489 54.4085 103.573 53.197 103.8C51.1761 104.126 49.2402 104.851 47.5023 105.933C45.7643 107.014 44.259 108.431 43.074 110.1C41.8891 111.77 41.0481 113.658 40.6003 115.656C40.1524 117.653 40.1065 119.72 40.4653 121.735C41.3461 130.047 50.2076 137.056 58.411 137.265C59.253 137.286 60.0951 137.23 60.9268 137.098C69.8039 135.661 72.1281 126.513 70.6649 117.528C69.012 107.382 61.7813 103.806 56.8734 103.551ZM65.5716 127.588C65.1969 128.149 64.6767 128.597 64.0668 128.886C63.4568 129.174 62.78 129.291 62.1086 129.224C60.9284 129.131 59.8278 128.592 59.0298 127.718C58.2318 126.843 57.796 125.698 57.8107 124.515C57.7902 122.937 58.0944 121.372 58.7042 119.917C59.0851 118.993 59.1217 117.963 58.8074 117.014C58.4931 116.065 57.8488 115.26 56.9915 114.746C55.938 114.093 54.6742 113.869 53.4606 114.12C52.2852 114.346 51.2465 115.027 50.5708 116.015C50.1147 116.752 49.7586 117.547 49.5119 118.378C49.4638 118.524 49.4257 118.638 49.3967 118.712C48.9945 119.738 48.3526 120.038 47.9186 119.982C47.7588 119.953 47.6108 119.878 47.4922 119.767C47.3736 119.656 47.2895 119.513 47.2499 119.356C47.0248 117.986 47.1303 116.583 47.5576 115.263C47.9849 113.943 48.7216 112.744 49.7063 111.766C50.5639 110.91 51.6056 110.261 52.752 109.869C53.8983 109.476 55.1191 109.351 56.3214 109.502C57.5838 109.653 58.7904 110.11 59.8369 110.832C60.8833 111.555 61.7382 112.521 62.3277 113.648C62.8949 115.003 63.1244 116.477 62.9963 117.941C62.8683 119.405 62.3865 120.816 61.5926 122.053C61.4922 122.267 61.4003 122.463 61.3218 122.638C61.0363 123.123 60.8787 123.672 60.8638 124.234C60.849 124.797 60.9774 125.353 61.237 125.852C61.4654 126.157 61.7636 126.401 62.1065 126.566C62.4493 126.731 62.8268 126.812 63.2071 126.8C63.5702 126.796 63.9314 126.747 64.283 126.657C64.7389 126.556 65.2104 126.452 65.4974 126.793C65.5926 126.901 65.6511 127.036 65.6645 127.178C65.6778 127.321 65.6453 127.464 65.5716 127.588Z" fill="white"/>
<path d="M170.313 144.632C172.165 139.932 173.236 134.961 173.483 129.916C173.483 123.712 169.971 121.141 167.734 121.141C167.666 120.902 167.223 119.284 166.614 117.337C166.266 116.208 165.852 115.099 165.376 114.018C167.206 111.49 167.981 108.348 167.536 105.258C167.17 102.876 166.037 100.678 164.309 98.9977C161.03 96.2142 157.117 94.279 152.915 93.3623C152.282 93.1854 150.195 92.6133 150.012 92.5573C149.997 92.4378 149.859 85.7237 149.734 82.8411C149.679 79.9507 149.249 77.0797 148.452 74.3007C147.462 70.3125 145.416 66.6648 142.528 63.7412C149.758 56.2576 154.271 48.0142 154.26 40.9423C154.24 27.342 137.513 23.2264 116.901 31.7498C116.878 31.7593 112.564 33.5857 112.533 33.6014C112.514 33.5823 104.637 25.8659 104.519 25.7621C81.0184 5.29317 7.53884 86.8501 31.0317 106.658L36.1658 111.001C34.7804 114.713 34.2913 118.7 34.7382 122.638C35.4341 128.366 38.2655 133.62 42.6667 137.351C46.9388 141.229 52.458 143.448 58.2249 143.607C67.3671 164.644 88.255 177.549 112.747 178.276C139.019 179.055 161.073 166.745 170.313 144.632ZM175.706 119.736C177.956 122.64 179.114 126.244 178.977 129.916C178.741 135.643 177.543 141.29 175.434 146.62L175.384 146.745C170.617 158.209 162.294 167.839 151.641 174.215C140.553 180.664 127.919 183.977 115.093 183.798C114.263 183.798 113.417 183.785 112.584 183.76C99.9254 183.496 87.5681 179.848 76.795 173.196C67.312 167.254 59.638 158.827 54.606 148.831C48.8086 147.931 43.3961 145.37 39.0231 141.459C33.5861 136.814 30.1032 130.288 29.2711 123.185C28.9003 119.734 29.1003 116.246 29.8632 112.86L27.4798 110.845C25.5505 109.178 23.9826 107.135 22.8727 104.84C21.7628 102.545 21.1343 100.047 21.0259 97.5002C20.8303 92.2134 21.744 86.9442 23.7082 82.0319C28.6009 68.674 39.8565 52.768 53.8189 39.4825C60.0497 33.4362 66.9615 28.134 74.4155 23.6824C80.6326 19.7059 87.7729 17.4061 95.1421 17.0065C99.8949 16.8826 104.524 18.5294 108.131 21.6273C108.337 21.8069 111.422 24.8246 113.763 27.1172C114.35 26.8694 114.773 26.6911 114.785 26.6864C121.709 23.6706 129.15 22.0193 136.699 21.8232C150.687 21.8232 159.737 29.3245 159.755 40.934C159.766 48.0974 156.249 56.1278 149.765 63.9016C151.529 66.6292 152.864 69.6116 153.722 72.7445C154.643 75.9517 155.147 79.264 155.223 82.6C155.286 84.0351 155.35 86.338 155.402 88.3706C160.185 89.5814 164.606 91.9289 168.288 95.2137C170.784 97.6904 172.421 100.902 172.959 104.377C173.5 107.807 172.97 111.321 171.441 114.439C171.577 114.829 171.719 115.253 171.86 115.702C171.982 116.094 172.098 116.472 172.206 116.83C173.552 117.559 174.742 118.547 175.706 119.736Z" fill="white"/>
<path d="M159.052 112.944C159.943 112.106 160.638 111.082 161.087 109.945C161.536 108.808 161.728 107.585 161.65 106.365C161.472 105.135 160.898 103.997 160.015 103.122C157.425 100.972 154.344 99.4969 151.046 98.8271C149.539 98.3997 148.517 98.1259 147.416 97.7595C145.458 97.1077 144.49 96.5829 144.271 92.8601C144.175 91.232 143.894 85.5601 143.793 83.2164C143.614 79.1095 143.125 73.4959 139.681 71.1782C138.804 70.5969 137.785 70.2677 136.735 70.2265C136.147 70.1903 135.556 70.2487 134.987 70.3994C133.238 70.8079 131.647 71.7172 130.407 73.0161C128.803 74.4815 126.911 75.5971 124.852 76.2921C122.793 76.9871 120.612 77.2462 118.448 77.0531C116.037 76.9509 113.482 76.5715 110.553 76.3958C109.983 76.3622 109.411 76.3265 108.841 76.2963C105.056 76.4081 101.438 77.8765 98.6453 80.4339C95.8532 82.9912 94.0733 86.467 93.6302 90.2273C91.9534 101.891 100.308 107.918 102.72 111.455C103.092 111.906 103.323 112.458 103.383 113.041C103.321 113.687 103.014 114.284 102.525 114.711L102.525 114.715C99.1856 118.474 96.8407 123.011 95.705 127.91C94.5692 132.809 94.6788 137.914 96.0237 142.76C96.3424 143.924 96.751 145.061 97.2459 146.162C103.342 160.564 122.253 167.272 140.728 161.171C143.148 160.372 145.496 159.369 147.747 158.173C151.797 156.148 155.441 153.396 158.495 150.052C163.26 145.219 166.39 139.013 167.444 132.309C168 128.597 167.185 127.16 166.076 126.469C165.292 126.029 164.384 125.861 163.495 125.993C163.025 123.079 162.199 120.234 161.037 117.521L159.052 112.944Z" fill="white"/>
<path d="M128.775 57.3186C129.073 57.387 129.262 56.872 128.995 56.7225C124.582 54.4353 119.714 53.1613 114.745 52.9933C114.697 52.9926 114.651 52.9786 114.61 52.9531C114.57 52.9275 114.538 52.8913 114.516 52.8484C114.495 52.8056 114.487 52.7577 114.491 52.7101C114.495 52.6626 114.513 52.6171 114.541 52.5789C115.314 51.5694 116.215 50.6659 117.223 49.8916C117.268 49.8565 117.301 49.808 117.316 49.753C117.332 49.698 117.33 49.6395 117.309 49.586C117.289 49.5325 117.253 49.4869 117.205 49.4557C117.157 49.4246 117.1 49.4096 117.043 49.413C110.96 50.0105 105.112 52.0722 99.9987 55.4219C99.9551 55.4513 99.9037 55.467 99.8511 55.4669C99.7985 55.4667 99.7471 55.4508 99.7037 55.4212C99.6602 55.3915 99.6267 55.3495 99.6073 55.3006C99.588 55.2517 99.5838 55.1981 99.5953 55.1468C100.007 53.6109 100.613 52.1338 101.399 50.7512C101.425 50.7038 101.435 50.6493 101.427 50.5957C101.42 50.5422 101.396 50.4924 101.358 50.4538C101.32 50.4152 101.271 50.3897 101.217 50.3812C101.164 50.3727 101.109 50.3815 101.061 50.4064C93.6778 54.4617 87.0972 59.8316 81.6434 66.2516C81.6007 66.3005 81.5776 66.3633 81.5783 66.4282C81.579 66.493 81.6034 66.5553 81.6471 66.6033C81.6907 66.6512 81.7505 66.6815 81.815 66.6883C81.8794 66.6951 81.9442 66.6779 81.9968 66.6401C88.317 62.2237 95.4371 59.0809 102.959 57.3874C111.45 55.4288 120.273 55.4053 128.775 57.3186Z" fill="white"/>
<path d="M107.029 36.4852C107.029 36.4852 100.632 29.0801 98.7017 28.5339C86.8226 25.3284 61.1623 42.9999 44.7782 66.3472C38.1487 75.7937 28.6586 92.5223 33.1965 101.126C34.8094 103.058 36.6277 104.809 38.6191 106.347C41.6596 102.086 46.2356 99.1704 51.383 98.2159C57.843 80.1555 69.1828 64.2392 84.143 52.2348C91.3217 46.3596 98.9767 41.0916 107.029 36.4852Z" fill="white"/>
<path d="M65.1415 127.267C65.2336 127.378 65.2898 127.515 65.3027 127.659C65.3156 127.803 65.2845 127.948 65.2136 128.074C64.8688 128.634 64.3745 129.086 63.7865 129.38C63.1985 129.673 62.5401 129.797 61.8856 129.736C60.7192 129.611 59.644 129.047 58.8772 128.159C58.1105 127.271 57.7095 126.125 57.7552 124.953C57.7354 123.355 58.0271 121.769 58.6139 120.283C58.9843 119.352 59.023 118.322 58.7234 117.365C58.4237 116.409 57.8041 115.585 56.9686 115.032C56.4741 114.704 55.919 114.48 55.3362 114.371C54.7534 114.261 54.1546 114.27 53.5752 114.396C53.0076 114.516 52.4696 114.747 51.9928 115.078C51.516 115.408 51.1102 115.831 50.799 116.32C50.3589 117.074 50.0168 117.88 49.7808 118.72C49.7352 118.868 49.6985 118.984 49.6707 119.059C49.284 120.102 48.6676 120.406 48.25 120.35C48.0525 120.323 47.781 120.191 47.607 119.714C47.3886 118.334 47.4877 116.922 47.8969 115.586C48.306 114.25 49.0144 113.025 49.9681 112.005C50.7691 111.144 51.7633 110.487 52.8686 110.088C53.9739 109.688 55.1584 109.557 56.3242 109.706C57.5593 109.876 58.733 110.349 59.7402 111.084C60.7475 111.819 61.5568 112.792 62.0957 113.916C62.6414 115.297 62.8617 116.786 62.7393 118.267C62.6169 119.747 62.1553 121.18 61.3901 122.453C61.2932 122.67 61.2046 122.868 61.1299 123.048C60.8548 123.545 60.7037 124.102 60.6895 124.67C60.6753 125.238 60.7984 125.801 61.0483 126.312C61.2596 126.616 61.5432 126.864 61.8735 127.031C62.2038 127.199 62.5706 127.283 62.9411 127.274C63.2904 127.269 63.6376 127.22 63.9745 127.128C64.4131 127.025 64.8662 126.92 65.1415 127.267ZM173.246 129.966C173.001 134.999 171.938 139.96 170.098 144.652C160.917 166.718 139.008 179.002 112.908 178.225C88.5771 177.5 67.8253 164.621 58.743 143.628C53.0093 143.468 47.5242 141.252 43.2874 137.386C38.9106 133.655 36.0986 128.413 35.4105 122.703C34.9663 118.774 35.4522 114.797 36.8288 111.091L31.7281 106.757C8.38934 86.9903 81.3868 5.60477 104.734 26.0311C104.852 26.134 112.676 33.8349 112.696 33.8538C112.727 33.838 117.013 32.015 117.035 32.0061C137.513 23.5004 154.13 27.6072 154.15 41.1783C154.161 48.2361 149.678 56.4625 142.496 63.9298C145.366 66.8512 147.398 70.4905 148.38 74.4667C149.171 77.2407 149.599 80.1058 149.653 82.9901C149.778 85.8662 149.916 92.5667 149.929 92.686C150.112 92.7412 152.185 93.3119 152.813 93.489C156.991 94.4053 160.879 96.3369 164.133 99.1129C165.851 100.792 166.976 102.985 167.339 105.36C167.781 108.442 167.012 111.575 165.193 114.101C165.667 115.181 166.077 116.287 166.424 117.413C167.028 119.357 167.468 120.97 167.535 121.209C169.757 121.209 173.246 123.775 173.246 129.966ZM70.1067 117.857C68.5195 107.553 61.5704 103.922 56.8552 103.663C55.6716 103.6 54.4848 103.685 53.3221 103.915C44.9061 105.618 40.153 112.799 41.0883 122.13C41.7694 126.315 43.842 130.148 46.9711 133.01C50.1001 135.872 54.1028 137.596 58.3322 137.902C59.1417 137.923 59.9512 137.866 60.7497 137.732C69.2796 136.273 71.5128 126.982 70.1067 117.857ZM84.4915 52.4477C91.6206 46.5867 99.2254 41.3297 107.227 36.7312C107.227 36.7312 100.874 29.3419 98.9548 28.7974C87.1538 25.5976 61.6609 43.2323 45.3846 66.5303C38.7987 75.957 29.3708 92.651 33.8785 101.237C35.4798 103.164 37.2862 104.911 39.2657 106.447C42.2794 102.199 46.8266 99.2892 51.9464 98.3327C58.3516 80.3269 69.6159 64.4455 84.4915 52.4477ZM110.14 133.987C110.453 135.357 111.13 136.616 112.099 137.633C113.069 138.649 114.295 139.385 115.648 139.762C117.055 140.287 118.507 140.683 119.986 140.944C138.654 144.165 156.105 133.459 160.035 130.763C160.33 130.56 160.524 130.758 160.288 131.115C160.169 131.305 160.041 131.489 159.903 131.666C155.094 137.887 142.166 145.092 125.346 145.09C118.01 145.089 110.678 142.496 107.986 138.513C103.81 132.333 107.779 123.312 114.739 124.252C114.747 124.253 117.12 124.523 117.787 124.597C128.605 125.637 139.509 123.887 149.459 119.513C158.954 115.092 162.54 110.227 162.002 106.288C161.822 105.065 161.248 103.934 160.365 103.068C157.769 100.931 154.686 99.466 151.389 98.8032C149.881 98.3785 148.857 98.1075 147.755 97.7431C145.795 97.0957 144.826 96.5746 144.607 92.8778C144.511 91.2611 144.23 85.6289 144.128 83.3012C143.949 79.2229 143.46 73.6485 140.012 71.3469C139.134 70.769 138.114 70.4422 137.064 70.4017C136.475 70.3659 135.884 70.4239 135.313 70.5737C133.566 70.978 131.974 71.8808 130.731 73.1724C129.119 74.6292 127.223 75.7372 125.163 76.427C123.103 77.1168 120.923 77.3735 118.759 77.1809C116.346 77.08 113.788 76.7029 110.857 76.5284C110.287 76.4947 109.714 76.4592 109.143 76.43C105.369 76.529 101.755 77.9801 98.9611 80.5191C96.1668 83.0581 94.3772 86.5162 93.9181 90.2637C92.2398 101.846 100.602 107.831 103.016 111.343C103.389 111.791 103.621 112.339 103.681 112.918C103.617 113.561 103.31 114.154 102.821 114.577V114.58C99.4821 118.301 97.1351 122.803 95.9977 127.671C94.8602 132.539 94.969 137.615 96.314 142.43C96.6332 143.586 97.0422 144.716 97.5373 145.808C103.639 160.111 122.568 166.771 141.06 160.712C143.481 159.92 145.832 158.924 148.086 157.737C152.135 155.729 155.782 152.996 158.845 149.672C163.607 144.885 166.741 138.72 167.802 132.051C168.358 128.365 167.543 126.939 166.432 126.253C165.647 125.815 164.739 125.649 163.849 125.779C163.378 122.884 162.552 120.059 161.389 117.366C156.108 121.351 150.137 124.329 143.777 126.152C136.124 128.314 128.163 129.178 120.225 128.706C115.118 128.293 111.739 126.797 110.469 130.94C118.194 133.523 126.396 134.36 134.483 133.39C134.54 133.384 134.598 133.389 134.652 133.406C134.707 133.422 134.758 133.449 134.802 133.486C134.847 133.522 134.883 133.566 134.91 133.617C134.937 133.667 134.954 133.723 134.96 133.779C134.968 133.875 134.947 133.971 134.899 134.054C134.85 134.137 134.778 134.203 134.69 134.243C134.69 134.243 125.205 138.66 110.14 133.987ZM82.3595 66.8223C88.6336 62.4176 95.7078 59.2813 103.185 57.5898C111.619 55.6352 120.386 55.6115 128.831 57.5206C129.127 57.5885 129.315 57.075 129.051 56.9266C124.669 54.6448 119.831 53.3729 114.893 53.2043C114.846 53.2035 114.799 53.1895 114.759 53.164C114.719 53.1385 114.687 53.1023 114.666 53.0596C114.645 53.0169 114.636 52.9692 114.641 52.9218C114.645 52.8745 114.662 52.8292 114.691 52.7911C115.458 51.7843 116.354 50.8827 117.356 50.1093C117.401 50.0743 117.433 50.0258 117.449 49.971C117.464 49.9162 117.462 49.8579 117.442 49.8046C117.422 49.7512 117.385 49.7057 117.337 49.6745C117.29 49.6434 117.233 49.6282 117.177 49.6313C111.13 50.2292 105.319 52.287 100.243 55.628C100.2 55.6573 100.149 55.673 100.096 55.6729C100.044 55.6727 99.9929 55.6568 99.9496 55.6273C99.9064 55.5977 99.8731 55.5558 99.854 55.507C99.835 55.4582 99.831 55.4048 99.8427 55.3538C100.251 53.8217 100.853 52.3478 101.634 50.9676C101.66 50.9204 101.67 50.8662 101.663 50.8128C101.656 50.7595 101.632 50.7099 101.594 50.6713C101.556 50.6327 101.507 50.6072 101.454 50.5985C101.401 50.5898 101.347 50.5984 101.299 50.623C93.9588 54.6744 87.4212 60.0335 82.0083 66.4359C81.9659 66.4845 81.9428 66.5469 81.9434 66.6114C81.9441 66.6759 81.9684 66.7379 82.0118 66.7856C82.0551 66.8333 82.1145 66.8634 82.1787 66.8702C82.2428 66.8769 82.3071 66.8599 82.3595 66.8223ZM131.517 106.138C132.028 106.462 132.64 106.586 133.237 106.487C133.833 106.387 134.373 106.072 134.751 105.601C135.222 104.689 134.539 103.453 133.224 102.839C132.713 102.516 132.1 102.392 131.504 102.491C130.907 102.591 130.368 102.906 129.99 103.378C129.518 104.289 130.202 105.525 131.517 106.138ZM135.55 91.3599C135.866 93.0007 136.546 94.5495 137.541 95.8916C138.57 95.7652 139.61 95.7652 140.638 95.8916C141.239 94.0905 141.292 92.1515 140.789 90.3204C140.046 86.942 139.04 84.8973 136.962 85.2152C134.884 85.5337 134.808 87.9815 135.55 91.3599ZM139.971 99.1207C139.447 98.9703 138.889 98.9879 138.376 99.171C137.862 99.3541 137.419 99.6935 137.108 100.142C136.797 100.59 136.635 101.124 136.643 101.669C136.651 102.214 136.831 102.743 137.155 103.181C137.48 103.619 137.933 103.945 138.452 104.112C138.971 104.279 139.53 104.279 140.049 104.113C140.568 103.946 141.022 103.621 141.347 103.183C141.672 102.746 141.851 102.217 141.86 101.672C141.936 101.085 141.781 100.492 141.429 100.016C141.077 99.5407 140.555 99.2198 139.971 99.1207Z" fill="black"/>
<path d="M105.468 98.8187C105.136 98.7721 104.995 98.6303 104.953 98.4424C104.825 97.8595 105.721 96.9003 106.666 96.208C108.045 95.1997 109.66 94.5632 111.356 94.3596C113.052 94.156 114.772 94.3922 116.351 95.0453C117.826 95.6537 119.094 96.6744 120.003 97.9852C120.341 98.5363 120.407 98.9637 120.188 99.1876C119.848 99.5465 118.98 99.1354 117.567 98.5158C115.87 97.6831 113.995 97.2792 112.106 97.3395C109.867 97.7078 107.651 98.2016 105.468 98.8187ZM119.548 101.718C118.938 101.076 118.178 100.596 117.336 100.32C116.495 100.044 115.598 99.981 114.726 100.137C113.44 100.274 112.222 100.781 111.22 101.598C110.753 101.933 110.432 102.435 110.323 102.999C110.32 103.062 110.332 103.124 110.356 103.182C110.38 103.24 110.417 103.292 110.464 103.334C110.546 103.409 110.655 103.451 110.766 103.449C111.229 103.381 111.681 103.256 112.113 103.076C114.001 102.364 116.042 102.152 118.036 102.461C118.961 102.565 119.398 102.623 119.6 102.305C119.652 102.214 119.675 102.108 119.666 102.003C119.657 101.898 119.615 101.799 119.548 101.718Z" fill="black"/>
<path d="M116.931 102.565C117.514 100.489 117.547 98.2969 117.028 96.2042C116.276 92.8206 115.139 90.8871 113.031 91.2055C110.924 91.524 110.869 94.2508 111.549 97.6486C111.861 99.2056 112.469 100.688 113.341 102.016C115.017 104.356 116.157 103.75 116.931 102.565Z" fill="black"/>
</svg>
