<svg xmlns="http://www.w3.org/2000/svg" xmlns:xlink="http://www.w3.org/1999/xlink" version="1.1" width="256" height="256" viewBox="0 0 256 256" xml:space="preserve">
<g style="stroke: none; stroke-width: 0; stroke-dasharray: none; stroke-linecap: butt; stroke-linejoin: miter; stroke-miterlimit: 10; fill: none; fill-rule: nonzero; opacity: 1;" transform="translate(1.4065934065934016 1.4065934065934016) scale(2.81 2.81)">
	<path d="M 64.592 15.096 c -7.38 0 -13.148 5.558 -18.371 12.619 c -7.176 -9.137 -13.178 -12.619 -20.36 -12.619 C 11.219 15.096 0 34.152 0 54.322 c 0 12.621 6.106 20.582 16.334 20.582 c 7.361 0 12.655 -3.471 22.067 -19.922 c 0 0 3.923 -6.928 6.622 -11.701 c 0.946 1.527 1.942 3.173 2.988 4.936 l 4.413 7.424 c 8.597 14.386 13.387 19.262 22.067 19.262 C 84.455 74.904 90 66.834 90 53.95 C 90 32.832 78.528 15.096 64.592 15.096 z M 31.224 50.527 c -7.63 11.961 -10.27 14.642 -14.519 14.642 c -4.372 0 -6.971 -3.838 -6.971 -10.683 c 0 -14.642 7.301 -29.615 16.004 -29.615 c 4.713 0 8.651 2.722 14.684 11.358 C 34.694 45.016 31.224 50.527 31.224 50.527 z M 74.698 65.169 c -4.346 0 -6.423 -2.87 -14.675 -16.148 l -5.277 -8.801 c -1.428 -2.322 -2.8 -4.46 -4.117 -6.413 c 4.756 -7.34 8.679 -10.998 13.344 -10.998 c 9.693 0 17.447 14.271 17.447 31.801 C 81.421 61.292 79.232 65.169 74.698 65.169 z" style="stroke: none; stroke-width: 1; stroke-dasharray: none; stroke-linecap: butt; stroke-linejoin: miter; stroke-miterlimit: 10; fill: rgb(0,0,0); fill-rule: nonzero; opacity: 1;" transform=" matrix(1 0 0 1 0 0) " stroke-linecap="round"/>
</g>
</svg>