<svg width="200" height="200" viewBox="0 0 200 200" fill="none" xmlns="http://www.w3.org/2000/svg">
<rect width="200" height="200" fill="#7856FF"/>
<g clip-path="url(#clip0_397_62)">
<path d="M5 112.89H16.3893V111.68H15.534C13.8694 111.68 13.4685 111.225 13.4685 109.565V94.5482C14.6292 92.5819 16.1907 91.3219 18.157 91.3219C20.6273 91.3219 22.1393 93.1355 22.1393 96.5642V109.569C22.1393 111.233 21.7346 111.684 20.1234 111.684H19.2147V112.894H30.3519V111.684H29.5464C27.8817 111.684 27.4808 111.229 27.4808 109.569V96.0067C27.4808 95.5524 27.4808 95.098 27.4311 94.6475C28.5384 92.6315 30.2031 91.3219 32.1693 91.3219C34.6398 91.3219 36.1517 93.1355 36.1517 96.5642V109.569C36.1517 111.233 35.7469 111.684 34.1357 111.684H33.2269V112.894H44.3643V111.684H43.6083C41.894 111.684 41.4931 111.229 41.4931 109.569V96.0067C41.4931 90.9172 38.6219 88.0957 34.4374 88.0957C31.314 88.0957 28.5918 89.81 27.1295 93.2348C26.2743 89.9093 23.7543 88.0957 20.425 88.0957C17.4507 88.0957 14.8811 89.7069 13.4685 92.9332V88.6989H5V89.9093H6.00797C7.72229 89.9093 8.12317 90.3636 8.12317 92.0245V109.565C8.12317 111.229 7.71845 111.68 6.00797 111.68H5V112.89ZM51.065 84.6671C52.8786 84.6671 54.3905 83.1551 54.3905 81.3415C54.3905 79.5279 52.8786 78.016 51.065 78.016C49.2514 78.016 47.7395 79.5279 47.7395 81.3415C47.7395 83.1551 49.2514 84.6671 51.065 84.6671ZM45.4219 112.89H56.6088V111.68H55.8529C54.1881 111.68 53.7871 111.225 53.7871 109.565V88.6989H45.3188V89.9093H46.3267C48.041 89.9093 48.4419 90.3636 48.4419 92.0245V109.565C48.4419 111.229 48.0371 111.68 46.3267 111.68H45.4181V112.89H45.4219ZM64.7757 98.6794H68.0019C67.1962 98.1754 66.8948 97.469 66.49 96.1594L65.2795 91.6732C64.726 89.6573 64.2717 88.6989 62.0533 88.6989H57.4183V89.9093H58.075C59.434 89.9093 59.5869 90.4133 59.9917 91.9252L61.0493 95.8578C61.6029 97.7745 62.4619 98.6794 64.7795 98.6794H64.7757ZM72.2362 98.6794H75.4624C77.78 98.6794 78.5855 97.7707 79.1431 95.8578L80.2007 91.9252C80.6052 90.4133 80.8038 89.9093 82.1174 89.9093H82.774V88.6989H78.1886C75.9205 88.6989 75.4662 89.6076 74.9621 91.6732L73.7519 96.1594C73.3471 97.5187 73.0417 98.1754 72.2362 98.6794ZM68.0019 102.914H72.2362V98.6794H68.0019V102.914ZM57.4183 112.894H62.0533C64.2717 112.894 64.726 111.936 65.2795 109.92L66.49 105.434C66.8948 104.124 67.1962 103.418 68.0019 102.914H64.7757C62.4581 102.914 61.599 103.822 61.0455 105.735L59.9879 109.668C59.5831 111.18 59.434 111.684 58.0712 111.684H57.4145V112.894H57.4183ZM78.1809 112.894H82.7664V111.684H82.1098C80.8 111.684 80.5976 111.18 80.1931 109.668L79.1355 105.735C78.5817 103.819 77.7762 102.914 75.4548 102.914H72.2362C73.0417 103.418 73.3357 104.074 73.7405 105.434L74.9507 109.92C75.4548 111.985 75.909 112.894 78.1771 112.894H78.1809ZM83.4231 122.974H95.114V121.763H93.9036C92.2924 121.763 91.8876 121.309 91.8876 119.648V110.023C93.35 112.191 95.8202 113.501 98.7412 113.501C104.235 113.501 108.619 108.664 108.619 100.298C108.619 92.7384 104.487 88.1033 99.1421 88.1033C96.0188 88.1033 93.3959 89.9169 91.8838 93.1432V88.7066H83.4155V89.9169H84.4233C86.0881 89.9169 86.5386 90.3713 86.5386 92.0321V119.644C86.5386 121.309 86.0843 121.76 84.4233 121.76H83.4155V122.97L83.4231 122.974ZM97.2331 91.2227C100.509 91.2227 103.182 94.2962 103.182 100.394C103.182 107.045 100.711 110.676 97.3362 110.676C95.1674 110.676 93.2545 109.515 91.8914 107.499V94.9988C93.2012 92.5285 95.0681 91.2189 97.2331 91.2189V91.2227ZM116.587 113.398C119.863 113.398 122.482 111.836 124.448 108.309V108.862C124.448 111.886 126.365 113.196 129.538 113.196C130.496 113.196 131.706 113.096 132.512 112.844V111.585C132.107 111.684 131.805 111.737 131.504 111.737C130.244 111.737 129.839 110.981 129.839 109.771V96.8658C129.839 90.9172 126.514 88.0957 120.92 88.0957C117.19 88.0957 113.563 89.81 111.245 91.6236L112.051 93.0363C114.472 91.3716 116.839 90.4171 119.408 90.4171C122.734 90.4171 124.448 92.2307 124.448 96.4649V97.5721L118.248 99.9928C112.605 102.31 110.535 104.479 110.535 107.755C110.535 111.031 112.853 113.398 116.583 113.398H116.587ZM115.831 106.441C115.831 103.922 117.293 102.108 120.267 100.798L124.452 98.9848V106.846C122.89 109.015 121.077 110.275 119.11 110.275C117.144 110.275 115.835 108.915 115.835 106.445L115.831 106.441ZM133.52 112.894H145.012V111.684H144.054C142.389 111.684 141.988 111.229 141.988 109.569V94.5978C143.149 92.5819 144.86 91.3219 146.875 91.3219C149.495 91.3219 151.159 93.1355 151.159 96.5642V109.569C151.159 111.233 150.755 111.684 149.143 111.684H148.185V112.894H159.624V111.684H158.616C156.902 111.684 156.501 111.229 156.501 109.569V96.0067C156.501 90.9172 153.477 88.0957 149.193 88.0957C146.07 88.0957 143.447 89.7069 141.985 92.9332V88.6989H133.516V89.9093H134.524C136.238 89.9093 136.639 90.3636 136.639 92.0245V109.565C136.639 111.229 136.235 111.68 134.524 111.68H133.516V112.89L133.52 112.894ZM172.728 113.497C176.053 113.497 179.18 111.985 181.448 110.172L180.692 109.065C178.676 110.527 176.408 111.18 174.293 111.18C169.154 111.18 166.13 107.553 166.13 100.497V99.5881H182.055C181.956 92.7843 177.771 88.1491 171.674 88.1491C165.576 88.1491 160.685 93.6433 160.685 100.901C160.685 108.866 165.221 113.501 172.731 113.501L172.728 113.497ZM171.72 89.4053C174.744 89.4053 176.607 92.6812 176.912 98.225H166.229C166.684 92.6315 168.799 89.4053 171.724 89.4053H171.72ZM183.159 112.89H194.85V111.68H193.689C192.024 111.68 191.623 111.225 191.623 109.565V78.6192H183.155V79.8296H184.163C185.827 79.8296 186.278 80.2839 186.278 81.9448V109.565C186.278 111.229 185.824 111.68 184.163 111.68H183.155V112.89H183.159Z" fill="white"/>
</g>
<defs>
<clipPath id="clip0_397_62">
<rect width="190" height="45" fill="white" transform="translate(5 78)"/>
</clipPath>
</defs>
</svg>
