<svg width="200" height="200" viewBox="0 0 200 200" fill="none" xmlns="http://www.w3.org/2000/svg">
<rect width="200" height="200" fill="#0083B6"/>
<g clip-path="url(#clip0_200_232)">
<mask id="mask0_200_232" style="mask-type:luminance" maskUnits="userSpaceOnUse" x="10" y="37" width="179" height="125">
<path d="M10.0393 37.3272H188.384V161.673H10.0393V37.3272Z" fill="#00A1E0"/>
</mask>
<g mask="url(#mask0_200_232)">
<path fill-rule="evenodd" clip-rule="evenodd" d="M84.0916 50.9398C89.8484 44.9581 97.8608 41.2539 106.712 41.2539C118.515 41.2539 128.743 47.7984 134.251 57.5497C139.14 55.3683 144.435 54.2421 149.79 54.2448C171.034 54.2448 188.279 71.5877 188.279 92.9882C188.279 114.389 171.034 131.732 149.79 131.732C147.194 131.732 144.663 131.471 142.185 130.979C137.365 139.552 128.153 145.377 117.662 145.377C113.391 145.385 109.175 144.418 105.336 142.55C100.451 154.003 89.0747 162.052 75.83 162.052C61.9952 162.052 50.2586 153.348 45.7344 141.11C43.7208 141.534 41.6684 141.747 39.6104 141.746C23.1529 141.746 9.84264 128.264 9.84264 111.707C9.84264 100.581 15.8355 90.8953 24.7265 85.6597C22.8403 81.3227 21.8694 76.6443 21.8743 71.9162C21.8743 52.8063 37.4139 37.3613 56.5597 37.3613C67.7718 37.3613 77.8036 42.695 84.0981 50.9738" fill="#EAF4FF"/>
</g>
<path fill-rule="evenodd" clip-rule="evenodd" d="M35.8337 101.987C35.7216 102.279 35.8737 102.34 35.9098 102.391C36.2448 102.633 36.5851 102.809 36.9261 103.006C38.7488 103.968 40.4667 104.249 42.2633 104.249C45.922 104.249 48.1972 102.306 48.1972 99.1773V99.1158C48.1972 96.2232 45.6269 95.1695 43.2271 94.4169L42.913 94.3154C41.0968 93.7277 39.5297 93.216 39.5297 92.0249V91.964C39.5297 90.9431 40.4477 90.1904 41.864 90.1904C43.4376 90.1904 45.3128 90.7133 46.5127 91.375C46.5127 91.375 46.8681 91.604 46.9973 91.2618C47.0674 91.0766 47.6792 89.4424 47.7447 89.2591C47.8142 89.0674 47.6923 88.9228 47.567 88.8482C46.1901 88.0105 44.2887 87.4411 42.3216 87.4411L41.9564 87.4424C38.6059 87.4424 36.2651 89.4646 36.2651 92.3573V92.4195C36.2651 95.4692 38.8485 96.464 41.2614 97.1512L41.6496 97.2716C43.4068 97.8109 44.9279 98.2794 44.9279 99.5098V99.5713C44.9279 100.704 43.9379 101.548 42.3511 101.548C41.7341 101.548 39.7678 101.537 37.6368 100.193C37.3791 100.043 37.2323 99.9352 37.0336 99.8141C36.9287 99.7506 36.6664 99.6361 36.5523 99.979L35.8311 101.982M89.3999 101.982C89.2878 102.274 89.4399 102.334 89.4773 102.386C89.811 102.628 90.1527 102.804 90.4936 103.001C92.3164 103.963 94.0343 104.244 95.8308 104.244C99.4895 104.244 101.765 102.3 101.765 99.1721V99.1106C101.765 96.2179 99.201 95.1643 96.7947 94.4116L96.4806 94.3102C94.6644 93.7225 93.0973 93.2107 93.0973 92.0196V91.9588C93.0973 90.9378 94.0153 90.1852 95.4315 90.1852C97.0051 90.1852 98.8738 90.7081 100.08 91.3698C100.08 91.3698 100.436 91.5988 100.565 91.2565C100.635 91.0713 101.247 89.4372 101.306 89.2539C101.377 89.0622 101.254 88.9175 101.129 88.8429C99.7524 88.0052 97.851 87.4359 95.8839 87.4359L95.5181 87.4372C92.1676 87.4372 89.8268 89.4594 89.8268 92.3521V92.4143C89.8268 95.464 92.4102 96.4588 94.823 97.1459L95.2105 97.2663C96.9743 97.8056 98.4889 98.2742 98.4889 99.5046V99.5661C98.4889 100.698 97.4989 101.543 95.9121 101.543C95.2938 101.543 93.3222 101.532 91.1978 100.188C90.9401 100.038 90.7893 99.9345 90.5939 99.8089C90.5277 99.767 90.2189 99.6466 90.1133 99.9738L89.3921 101.976M125.979 95.8508C125.979 97.6178 125.648 99.0118 125.002 100C124.357 100.975 123.382 101.453 122.025 101.453C120.668 101.453 119.697 100.979 119.061 100.007C118.421 99.0249 118.098 97.6243 118.098 95.8573C118.098 94.0903 118.423 92.7029 119.061 91.7277C119.696 90.7591 120.661 90.2945 122.025 90.2945C123.389 90.2945 124.359 90.7637 125.002 91.7277C125.652 92.7029 125.979 94.0903 125.979 95.8573M129.034 92.5785C128.733 91.5641 128.267 90.6741 127.644 89.928C127.021 89.1819 126.235 88.5798 125.297 88.1479C124.366 87.7127 123.264 87.4934 122.019 87.4934C120.773 87.4934 119.678 87.714 118.74 88.1479C117.809 88.5824 117.016 89.1819 116.393 89.928C115.771 90.6741 115.304 91.5641 115.003 92.5785C114.705 93.5864 114.553 94.6858 114.553 95.8573C114.553 97.0288 114.705 98.1283 115.003 99.1361C115.302 100.151 115.77 101.041 116.393 101.787C117.016 102.533 117.809 103.128 118.74 103.554C119.678 103.978 120.779 104.194 122.019 104.194C123.258 104.194 124.359 103.978 125.29 103.554C126.221 103.13 127.015 102.533 127.638 101.787C128.26 101.041 128.726 100.151 129.028 99.1361C129.325 98.1283 129.477 97.0288 129.477 95.8573C129.477 94.6924 129.325 93.5864 129.028 92.5785M154.14 100.955C154.04 100.659 153.75 100.771 153.75 100.771C153.306 100.94 152.832 101.097 152.327 101.176C151.818 101.256 151.252 101.296 150.655 101.296C149.18 101.296 148 100.857 147.161 99.9869C146.315 99.1165 145.843 97.716 145.849 95.818C145.854 94.0903 146.272 92.7945 147.023 91.7997C147.764 90.8181 148.905 90.3076 150.413 90.3076C151.672 90.3076 152.635 90.4535 153.645 90.769C153.645 90.769 153.885 90.873 153.999 90.5582C154.267 89.8187 154.465 89.2886 154.753 88.4771C154.835 88.2447 154.635 88.1466 154.562 88.1184C154.166 87.964 153.231 87.7107 152.523 87.604C151.861 87.5033 151.094 87.4509 150.228 87.4509C148.943 87.4509 147.802 87.6701 146.826 88.1047C145.849 88.5386 145.022 89.1387 144.367 89.8848C143.711 90.6309 143.213 91.5209 142.878 92.5353C142.547 93.5432 142.38 94.6492 142.38 95.8207C142.38 98.3468 143.062 100.395 144.413 101.894C145.763 103.399 147.796 104.158 150.445 104.158C152.012 104.158 153.618 103.842 154.772 103.386C154.772 103.386 154.993 103.28 154.897 103.024L154.143 100.955M159.487 94.1492C159.633 93.1675 159.902 92.3495 160.326 91.7146C160.96 90.7461 161.926 90.216 163.283 90.216C164.64 90.216 165.539 90.7487 166.181 91.7146C166.607 92.3527 166.794 93.2002 166.863 94.1492L159.454 94.1479L159.487 94.1492ZM169.781 91.9895C169.52 91.0144 168.876 90.0262 168.456 89.5746C167.788 88.8612 167.138 88.3573 166.489 88.0824C165.552 87.6847 164.544 87.4806 163.526 87.4823C162.234 87.4823 161.06 87.7003 160.11 88.1433C159.159 88.5896 158.359 89.197 157.729 89.9561C157.101 90.7153 156.628 91.6119 156.326 92.6394C156.025 93.6538 155.873 94.7663 155.873 95.9313C155.873 97.1224 156.031 98.2284 156.341 99.2297C156.655 100.238 157.161 101.121 157.843 101.854C158.525 102.594 159.397 103.169 160.446 103.575C161.488 103.978 162.754 104.187 164.203 104.182C167.193 104.172 168.766 103.508 169.409 103.148C169.524 103.084 169.632 102.973 169.497 102.654L168.822 100.763C168.718 100.481 168.432 100.583 168.432 100.583C167.691 100.859 166.642 101.355 164.183 101.349C162.577 101.346 161.39 100.873 160.643 100.132C159.882 99.3724 159.502 98.2663 159.443 96.6957L169.802 96.7035C169.802 96.7035 170.075 96.7009 170.103 96.4352C170.115 96.3252 170.458 94.3148 169.795 91.9915L169.781 91.9895ZM76.6745 94.1492C76.8208 93.1675 77.0909 92.3495 77.5138 91.7146C78.1485 90.7461 79.1137 90.216 80.4709 90.216C81.8282 90.216 82.7265 90.7487 83.369 91.7146C83.7945 92.3527 83.9808 93.2002 84.0509 94.1492L76.6418 94.1479L76.6745 94.1492ZM86.9687 91.9895C86.709 91.0144 86.0638 90.0262 85.6442 89.5746C84.9754 88.8612 84.3263 88.3573 83.6772 88.0824C82.74 87.6847 81.7319 87.4806 80.7135 87.4823C79.4218 87.4823 78.2482 87.7003 77.2974 88.1433C76.3467 88.5896 75.5468 89.197 74.9173 89.9561C74.2898 90.7153 73.8158 91.6119 73.5142 92.6394C73.2132 93.6538 73.0618 94.7663 73.0618 95.9313C73.0618 97.1224 73.2185 98.2284 73.5312 99.2297C73.8446 100.238 74.3508 101.121 75.0262 101.854C75.7081 102.594 76.5801 103.169 77.6292 103.575C78.6717 103.978 79.9306 104.187 81.3862 104.182C84.3761 104.172 85.9498 103.508 86.5923 103.148C86.7064 103.084 86.8153 102.973 86.6795 102.654L86.0042 100.763C85.8999 100.481 85.6141 100.583 85.6141 100.583C84.8731 100.859 83.8241 101.355 81.3653 101.349C79.7654 101.346 78.5721 100.873 77.8246 100.132C77.064 99.3724 76.6837 98.2663 76.6247 96.6957L86.9844 96.7035C86.9844 96.7035 87.2572 96.7009 87.2854 96.4352C87.2965 96.3252 87.6401 94.3148 86.9759 91.9915L86.9687 91.9895ZM54.3159 100.89C53.9101 100.567 53.8537 100.488 53.7193 100.277C53.514 99.9614 53.4091 99.5118 53.4091 98.9359C53.4091 98.0327 53.7107 97.3783 54.3336 96.9398C54.3271 96.9411 55.2254 96.1675 57.3366 96.1937C58.2764 96.2105 59.2139 96.2903 60.1429 96.4326V101.125H60.1443C60.1443 101.125 58.8329 101.407 57.3511 101.496C55.2463 101.622 54.3153 100.891 54.3218 100.893L54.3159 100.89ZM58.4336 93.6256C58.014 93.5949 57.4697 93.5798 56.8206 93.5798C55.9355 93.5798 55.0765 93.6898 54.2766 93.9057C53.4701 94.123 52.7423 94.4594 52.1194 94.9071C51.4948 95.3518 50.9811 95.934 50.6179 96.6086C50.2514 97.2893 50.0645 98.0877 50.0645 98.9908C50.0645 99.9071 50.2239 100.699 50.5386 101.347C50.847 101.989 51.3112 102.545 51.8893 102.963C52.4643 103.381 53.1744 103.69 53.994 103.873C54.807 104.058 55.725 104.152 56.7347 104.152C57.7969 104.152 58.8526 104.063 59.8754 103.891C60.7466 103.741 61.6145 103.572 62.4785 103.385C62.8234 103.306 63.2063 103.202 63.2063 103.202C63.462 103.137 63.4423 102.865 63.4423 102.865L63.4364 93.4404C63.4364 91.3724 62.883 89.8344 61.7907 88.8855C60.7022 87.9365 59.1089 87.4588 57.0436 87.4588C56.2699 87.4588 55.0175 87.5635 54.27 87.7133C54.27 87.7133 52.0145 88.1505 51.0834 88.8783C51.0834 88.8783 50.8789 89.0039 50.9903 89.2886L51.7247 91.252C51.8158 91.5065 52.0643 91.4195 52.0643 91.4195C52.0643 91.4195 52.1424 91.3887 52.2342 91.3344C54.2209 90.2546 56.7387 90.2873 56.7387 90.2873C57.8533 90.2873 58.7188 90.5131 59.2958 90.9548C59.8603 91.3874 60.1482 92.0412 60.1482 93.4156V93.8521C59.263 93.7238 58.4434 93.6499 58.4434 93.6499L58.4336 93.6256ZM141.705 88.305C141.72 88.2704 141.727 88.2333 141.728 88.1957C141.728 88.1581 141.72 88.1209 141.706 88.0862C141.691 88.0515 141.67 88.0201 141.643 87.9938C141.616 87.9675 141.584 87.9469 141.549 87.9332C141.373 87.8665 140.494 87.6813 139.818 87.6394C138.52 87.5582 137.799 87.7768 137.15 88.0674C136.508 88.356 135.799 88.82 135.406 89.3567L135.404 88.1001C135.404 87.9273 135.282 87.7879 135.107 87.7879H132.458C132.287 87.7879 132.162 87.9273 132.162 88.1001V103.48C132.162 103.563 132.195 103.642 132.254 103.701C132.313 103.76 132.393 103.793 132.476 103.793H135.191C135.274 103.793 135.353 103.76 135.412 103.701C135.471 103.642 135.504 103.563 135.504 103.48V95.7572C135.504 94.7232 135.618 93.6957 135.846 93.0478C136.07 92.4071 136.375 91.8959 136.75 91.5294C137.109 91.1755 137.547 90.9128 138.029 90.7637C138.481 90.6343 138.949 90.5686 139.419 90.5687C139.96 90.5687 140.553 90.7074 140.553 90.7074C140.753 90.7297 140.863 90.608 140.931 90.4287C141.109 89.9568 141.613 88.5438 141.711 88.2624" fill="#FFFFFE"/>
<path fill-rule="evenodd" clip-rule="evenodd" d="M116.352 81.2068C116.016 81.1056 115.675 81.0247 115.329 80.9646C114.865 80.8873 114.394 80.8509 113.924 80.856C112.053 80.856 110.578 81.3835 109.543 82.4254C108.515 83.4594 107.815 85.0347 107.465 87.1073L107.338 87.8069H104.99C104.99 87.8069 104.703 87.7951 104.643 88.1073L104.258 90.2539C104.231 90.4594 104.319 90.5877 104.595 90.5864H106.88L104.561 103.507C104.38 104.548 104.172 105.404 103.942 106.052C103.715 106.692 103.493 107.172 103.22 107.52C102.956 107.857 102.706 108.105 102.274 108.25C101.917 108.37 101.506 108.425 101.057 108.425C100.806 108.425 100.473 108.383 100.227 108.334C99.9813 108.285 99.8534 108.23 99.6692 108.153C99.6692 108.153 99.401 108.051 99.2954 108.319C99.2095 108.539 98.6004 110.211 98.5283 110.418C98.4548 110.622 98.5578 110.783 98.6876 110.829C98.9918 110.938 99.2181 111.007 99.6324 111.105C100.208 111.24 100.693 111.249 101.148 111.249C102.1 111.249 102.967 111.115 103.686 110.856C104.41 110.595 105.04 110.14 105.598 109.524C106.2 108.86 106.579 108.164 106.942 107.215C107.301 106.275 107.606 105.107 107.851 103.747L110.181 90.5864H113.588C113.588 90.5864 113.875 90.5968 113.935 90.286L114.32 88.1394C114.347 87.9339 114.259 87.8056 113.983 87.8069H110.676C110.692 87.7323 110.843 86.5713 111.222 85.4784C111.384 85.0118 111.689 84.6354 111.947 84.3769C112.189 84.1307 112.486 83.9462 112.814 83.839C113.173 83.7281 113.547 83.6742 113.924 83.6793C114.235 83.6793 114.541 83.7166 114.773 83.765C115.094 83.8331 115.219 83.8691 115.302 83.894C115.639 83.9967 115.685 83.8972 115.751 83.7343L116.542 81.5667C116.623 81.3337 116.425 81.2356 116.352 81.2068ZM70.1433 103.535C70.1433 103.707 70.0201 103.848 69.847 103.848H67.1043C66.9305 103.848 66.8073 103.707 66.8073 103.535V81.5006C66.8073 81.3285 66.9305 81.1891 67.1043 81.1891H69.847C70.0201 81.1891 70.1433 81.3285 70.1433 81.5006V103.535Z" fill="#FFFFFE"/>
</g>
<defs>
<clipPath id="clip0_200_232">
<rect width="179" height="125" fill="white" transform="translate(10 37)"/>
</clipPath>
</defs>
</svg>
