<svg width="200" height="200" viewBox="0 0 200 200" fill="none" xmlns="http://www.w3.org/2000/svg">
<rect width="200" height="200" fill="#EAF4FF"/>
<path d="M139.387 95.4027V115.709H132.845V92.2227L139.387 95.4027Z" fill="#F37368"/>
<path d="M46.8029 111.939L51.7092 116.209L72.3793 105.442L70.2441 100.309L46.8029 111.939ZM132.845 98.8552L149.472 90.2237L146.655 85.3629L132.845 92.2226V98.8552Z" fill="#F7A199"/>
<path d="M86.0533 93.8126V115.709H79.7842V84.4997L86.0533 93.8126ZM46.8029 111.939L51.7092 116.209L61.1584 92.586L58.1147 84.4997L46.8029 111.939Z" fill="#F37368"/>
<path d="M58.1147 84.4997H64.5656L76.5133 115.709H69.8807L58.1147 84.4997ZM87.0074 84.4997L100.772 105.806V115.709L79.7842 84.4997H87.0074ZM112.584 84.4997H119.08V115.709H112.584V84.4997ZM132.845 90.2237H122.851V84.4997H146.156L149.472 90.2237H139.387H132.845Z" fill="#F04939"/>
<path d="M168.688 103.852V115.709H162.237V103.852" fill="#F7A199"/>
<path d="M173.14 84.4997L162.237 103.852H168.688L180 84.4997H173.14Z" fill="#F04939"/>
<path d="M162.237 103.852L150.971 84.4997H158.058L165.645 97.7649L162.237 103.852Z" fill="#F37368"/>
<path d="M22.5895 88.134C22.5895 92.4497 25.2698 95.0391 30.6303 96.402L36.3089 97.7194C41.397 98.9006 44.4861 101.808 44.4861 106.533C44.5315 108.577 43.8501 110.576 42.6235 112.211C42.6235 107.487 40.1704 104.943 34.3101 103.398L28.7223 102.126C24.2249 101.127 20.7723 98.7189 20.7723 93.5854C20.7723 91.632 21.4083 89.6785 22.5895 88.134Z" fill="#F04939"/>
<path d="M100.772 104.216V84.4997H107.041V115.709H100.772V104.216Z" fill="#F37368"/>
<path d="M39.1255 105.352C41.5332 106.896 42.6235 109.077 42.6235 112.211C40.5792 114.801 37.0812 116.209 32.9472 116.209C25.9966 116.209 21.0449 112.756 20 106.805H26.678C27.5412 109.531 29.8126 110.803 32.9018 110.803C36.5815 110.848 39.0801 108.85 39.1255 105.352ZM22.5894 88.0886C24.5429 85.5446 27.9046 84 31.9932 84C39.1255 84 43.2141 87.7706 44.2589 93.0403H37.8081C37.0812 90.9506 35.3095 89.3152 32.084 89.3152C28.586 89.3606 26.2237 91.3595 26.0875 94.5395C23.7465 93.2485 22.4986 90.7235 22.5894 88.0886Z" fill="#F37368"/>
</svg>
