<svg width="200" height="200" viewBox="0 0 200 200" fill="none" xmlns="http://www.w3.org/2000/svg">
<rect width="200" height="200" fill="#EAF4FF"/>
<path d="M113.269 96.0485H79.1176V112.059H112.448C114.419 112.059 116.224 111.259 117.701 109.978C119.015 108.697 119.836 106.776 119.836 104.374C119.883 102.313 119.25 100.291 118.029 98.6097C116.715 97.0102 115.238 96.0485 113.269 96.0485ZM114.419 76.6774C115.895 75.7157 116.552 73.6347 116.552 70.9131C116.552 68.511 115.895 66.7511 114.746 65.6303C113.596 64.6686 112.118 64.0294 110.477 64.0294H79.1176V78.4374H109.82C111.462 78.4374 113.105 77.6377 114.419 76.6774Z" fill="#09B3AF"/>
<path d="M164.628 16H36.3531C32.2694 16 29 19.2563 29 23.1641V151.145C29 155.053 32.2694 157.496 36.1896 157.496H55.1444V183.059L78.6749 157.659H164.628C168.549 157.659 171 155.216 171 151.145V23.3273C171 19.4195 168.548 16.1633 164.464 16.1633L164.628 16ZM143.057 119.719C141.423 122.65 138.972 125.092 136.031 126.885C132.925 128.838 129.494 130.629 125.572 131.443C121.651 132.421 117.403 133.234 112.991 133.234H55.1444V42.0515H120.835C124.103 42.0515 126.88 42.7045 129.494 44.1694C131.946 45.471 134.235 47.2624 136.031 49.3788C139.691 53.8242 141.658 59.4188 141.586 65.1733C141.586 69.4061 140.442 73.4772 138.318 77.385C136.114 81.3176 132.666 84.4095 128.515 86.1771C133.743 87.6435 137.828 90.2482 140.934 93.9927C143.875 97.9005 145.344 102.948 145.344 109.299C145.344 113.37 144.527 116.789 142.894 119.719H143.057Z" fill="#09B3AF"/>
</svg>
