<svg width="200" height="200" viewBox="0 0 200 200" fill="none" xmlns="http://www.w3.org/2000/svg">
<rect width="200" height="200" fill="#EAF4FF"/>
<path d="M104.231 76.0015C116.11 76.0015 125.74 66.403 125.74 54.5625C125.74 42.7221 116.11 33.1235 104.231 33.1235C92.3521 33.1235 82.7222 42.7221 82.7222 54.5625C82.7222 66.403 92.3521 76.0015 104.231 76.0015Z" fill="#7B83EB"/>
<path opacity="0.1" d="M102.696 59.1562H83.2153L83.3121 59.5835L83.3213 59.6202L83.4227 60.0153C84.8382 65.3657 88.2726 69.9642 93.0089 72.8506C97.7451 75.737 103.417 76.6881 108.84 75.5054V65.2797C108.835 63.6572 108.186 62.1025 107.035 60.9551C105.884 59.8078 104.324 59.1611 102.696 59.1562Z" fill="black"/>
<path opacity="0.2" d="M98.0877 63.75H84.7961C86.5405 67.4159 89.2928 70.5132 92.7331 72.6819C96.1734 74.8506 100.161 76.0018 104.231 76.0015V69.8735C104.226 68.2509 103.577 66.6962 102.426 65.5489C101.275 64.4016 99.7156 63.7548 98.0877 63.75Z" fill="black"/>
<path d="M152.623 77.5312C161.532 77.5312 168.754 70.3328 168.754 61.4531C168.754 52.5734 161.532 45.375 152.623 45.375C143.714 45.375 136.492 52.5734 136.492 61.4531C136.492 70.3328 143.714 77.5312 152.623 77.5312Z" fill="#5059C9"/>
<path d="M166.449 82.125H130.22C129.438 82.125 128.687 82.4347 128.134 82.9861C127.581 83.5375 127.27 84.2853 127.27 85.065V122.32C127.17 127.712 128.932 132.975 132.261 137.226C135.589 141.478 140.282 144.461 145.553 145.675C148.911 146.377 152.383 146.324 155.717 145.52C159.052 144.716 162.164 143.181 164.828 141.026C167.492 138.872 169.64 136.152 171.116 133.066C172.593 129.979 173.36 126.603 173.362 123.184V89.0156C173.362 87.1881 172.634 85.4355 171.338 84.1432C170.041 82.851 168.283 82.125 166.449 82.125Z" fill="#5059C9"/>
<path d="M141.101 89.0156V132.656C141.106 140.744 138.432 148.607 133.495 155.025C128.558 161.443 121.633 166.057 113.796 168.151C105.959 170.245 97.6471 169.703 90.1511 166.607C82.655 163.512 76.3936 158.036 72.3387 151.031C71.4518 149.562 70.6813 148.026 70.0343 146.438C69.4311 144.94 68.9231 143.405 68.5134 141.844C67.7536 138.84 67.3666 135.754 67.3612 132.656V89.0156C67.36 88.1104 67.538 87.2138 67.885 86.3773C68.232 85.5407 68.7411 84.7806 69.3833 84.1405C70.0255 83.5004 70.7881 82.9929 71.6274 82.6471C72.4667 82.3012 73.3662 82.1238 74.2743 82.125H134.188C135.096 82.1238 135.996 82.3012 136.835 82.6471C137.674 82.9929 138.437 83.5004 139.079 84.1405C139.721 84.7806 140.23 85.5407 140.577 86.3773C140.924 87.2138 141.102 88.1104 141.101 89.0156Z" fill="#7B83EB"/>
<path opacity="0.2" d="M98.0877 63.75H84.7961C86.5405 67.4159 89.2928 70.5132 92.7331 72.6819C96.1734 74.8506 100.161 76.0018 104.231 76.0015V69.8735C104.226 68.2509 103.577 66.6962 102.426 65.5489C101.275 64.4016 99.7156 63.7548 98.0877 63.75Z" fill="black"/>
<path opacity="0.1" d="M108.84 82.125V140.328C108.84 141.713 108.364 143.056 107.492 144.134C106.621 145.212 105.405 145.96 104.047 146.254C103.613 146.382 103.163 146.444 102.71 146.438H70.0343C69.4311 144.94 68.9231 143.405 68.5134 141.844C67.7536 138.84 67.3666 135.754 67.3612 132.656V89.0156C67.36 88.1104 67.538 87.2138 67.885 86.3773C68.232 85.5407 68.7411 84.7806 69.3833 84.1405C70.0255 83.5004 70.7881 82.9929 71.6274 82.6471C72.4667 82.3012 73.3662 82.1238 74.2743 82.125H108.84Z" fill="black"/>
<path opacity="0.2" d="M104.231 82.125V144.922C104.238 145.372 104.176 145.822 104.047 146.254C103.752 147.607 103.002 148.819 101.92 149.688C100.838 150.557 99.4909 151.031 98.1016 151.031H72.3387C71.4518 149.562 70.6813 148.026 70.0343 146.438C69.4311 144.94 68.9231 143.405 68.5134 141.844C67.7536 138.84 67.3666 135.754 67.3612 132.656V89.0156C67.36 88.1104 67.538 87.2138 67.885 86.3773C68.232 85.5407 68.7411 84.7806 69.3833 84.1405C70.0255 83.5004 70.7881 82.9929 71.6274 82.6471C72.4667 82.3012 73.3662 82.1238 74.2743 82.125H104.231Z" fill="black"/>
<path opacity="0.2" d="M104.231 82.125V135.734C104.224 137.352 103.576 138.902 102.428 140.046C101.28 141.19 99.725 141.837 98.1016 141.844H68.5134C67.7536 138.84 67.3666 135.754 67.3612 132.656V89.0156C67.36 88.1104 67.538 87.2138 67.885 86.3773C68.232 85.5407 68.7411 84.7806 69.3833 84.1405C70.0255 83.5004 70.7881 82.9929 71.6274 82.6471C72.4667 82.3012 73.3662 82.1238 74.2743 82.125H104.231Z" fill="black"/>
<path opacity="0.2" d="M74.2743 82.125C73.3662 82.1238 72.4667 82.3012 71.6274 82.6471C70.7881 82.9929 70.0255 83.5004 69.3833 84.1405C68.7411 84.7806 68.232 85.5407 67.885 86.3773C67.538 87.2138 67.36 88.1104 67.3612 89.0156V132.656C67.3666 135.754 67.7536 138.84 68.5134 141.844H93.4928C95.1163 141.837 96.6711 141.19 97.8191 140.046C98.9671 138.902 99.6152 137.352 99.6225 135.734V82.125H74.2743Z" fill="black"/>
<path d="M32.0259 63.75H93.479C95.1083 63.75 96.6709 64.3951 97.8231 65.5435C98.9752 66.6919 99.6224 68.2494 99.6224 69.8735V131.127C99.6224 132.751 98.9752 134.308 97.8231 135.456C96.6709 136.605 95.1083 137.25 93.479 137.25H32.0259C30.3966 137.25 28.8339 136.605 27.6818 135.456C26.5297 134.308 25.8824 132.751 25.8824 131.127V69.8735C25.8824 68.2494 26.5297 66.6919 27.6818 65.5435C28.8339 64.3951 30.3966 63.75 32.0259 63.75Z" fill="#4B53BC"/>
<path d="M81.0953 86.6039H67.3151V123.446H58.2727V86.6039H44.4096V77.5542H81.0953V86.6039Z" fill="#EAF4FF"/>
</svg>
