<svg width="200" height="200" viewBox="0 0 200 200" fill="none" xmlns="http://www.w3.org/2000/svg">
<rect width="200" height="200" fill="#EAF4FF"/>
<path d="M86.5607 162.69C80.9863 171.463 72.4789 177.455 62.8974 179.356C53.3159 181.257 43.4392 178.913 35.4253 172.836C29.172 167.879 24.4761 160.908 21.9881 152.887C19.5002 144.867 19.3434 136.195 21.5395 128.072C23.7356 119.95 28.1759 112.779 34.2451 107.553C40.3144 102.327 47.7123 99.3051 55.4139 98.9053V111.521C51.6432 111.848 47.9862 113.095 44.709 115.17C41.4318 117.246 38.6169 120.098 36.4689 123.519C32.6792 129.525 31.2102 136.936 32.3839 144.13C33.5576 151.323 37.2782 157.712 42.7304 161.896C48.2159 165.944 54.9378 167.437 61.4231 166.048C67.9084 164.659 73.6282 160.501 77.3291 154.485C79.7131 150.697 81.253 146.345 81.8245 141.781V132.959H126.618L127.18 131.989C128.707 129.18 130.955 126.931 133.642 125.523C136.329 124.115 139.335 123.612 142.282 124.077C145.229 124.543 147.984 125.955 150.202 128.137C152.42 130.319 154.001 133.174 154.747 136.341C155.492 139.508 155.369 142.847 154.392 145.937C153.415 149.028 151.629 151.732 149.257 153.709C146.885 155.686 144.034 156.848 141.063 157.049C138.092 157.25 135.133 156.481 132.559 154.838C129.4 152.932 127.018 149.779 125.896 146.016H93.2236C92.0821 152.023 89.8128 157.702 86.5607 162.69ZM145.001 99.6993C150.046 99.9312 154.991 101.31 159.526 103.748C164.061 106.187 168.087 109.632 171.35 113.866C174.612 118.101 177.04 123.033 178.481 128.35C179.922 133.668 180.344 139.257 179.72 144.763C179.097 150.269 177.442 155.573 174.859 160.34C172.276 165.108 168.822 169.235 164.715 172.462C160.607 175.688 155.936 177.944 150.995 179.087C146.055 180.229 140.953 180.233 136.01 179.1C130.371 178.377 124.956 176.244 120.183 172.864C115.41 169.484 111.405 164.948 108.476 159.602L118.43 153.868C120.489 157.372 123.226 160.335 126.444 162.546C129.663 164.757 133.285 166.161 137.054 166.66C140.248 167.095 143.489 166.833 146.591 165.891C149.694 164.949 152.597 163.345 155.135 161.17C157.673 158.995 159.797 156.292 161.384 153.215C162.972 150.138 163.992 146.748 164.388 143.237C164.783 139.727 164.545 136.165 163.688 132.756C162.831 129.346 161.371 126.156 159.392 123.366C157.413 120.577 154.953 118.243 152.154 116.498C149.354 114.753 146.269 113.632 143.075 113.197C138.924 112.684 134.721 113.227 130.792 114.785L123.969 118.667L103.258 76.2322H101.492C97.4894 76.0801 93.7057 74.1868 90.9733 70.9688C89.6203 69.3754 88.5662 67.5048 87.8711 65.4637C87.176 63.4226 86.8535 61.251 86.922 59.0729C86.9905 56.8948 87.4487 54.7529 88.2705 52.7695C89.0922 50.786 90.2614 48.9998 91.7112 47.5129C94.6393 44.51 98.533 42.9085 102.536 43.0606C106.56 43.2438 110.362 45.1424 113.134 48.3539C115.906 51.5655 117.432 55.8373 117.386 60.2639C117.234 64.0071 115.932 67.5831 113.694 70.4095L128.946 101.376C134.128 99.5652 139.602 98.9937 145.001 99.6993ZM68.8199 75.7029C66.954 70.8543 65.9753 65.6493 65.9397 60.3851C65.9041 55.1209 66.8124 49.9005 68.6126 45.0221C70.4128 40.1436 73.0697 35.7026 76.4316 31.9526C79.7935 28.2026 83.7946 25.217 88.2064 23.1664C92.6182 21.1158 97.3543 20.0402 102.144 20.0011C106.934 19.962 111.684 20.9602 116.123 22.9386C120.562 24.917 124.603 27.8369 128.016 31.5317C131.428 35.2264 134.144 39.6236 136.01 44.4721C138.264 50.1921 139.292 56.405 139.014 62.6309C138.735 68.8568 137.158 74.929 134.405 80.3786L124.451 74.4677C126.197 70.7663 127.168 66.6825 127.293 62.5153C127.418 58.3481 126.694 54.2028 125.173 50.383C124.114 46.8726 122.407 43.64 120.16 40.8868C117.913 38.1337 115.174 35.9192 112.113 34.3815C109.053 32.8439 105.736 32.0163 102.372 31.9502C99.0069 31.8841 95.6658 32.581 92.5572 33.9974C89.4485 35.4139 86.6388 37.5194 84.3037 40.1825C81.9686 42.8457 80.158 46.0093 78.9852 49.4758C77.8123 52.9423 77.3023 56.6374 77.4869 60.3302C77.6716 64.0231 78.547 67.6344 80.0584 70.9388C82.268 76.5484 86.0697 81.2216 90.8956 84.2604L94.0264 86.1131L69.3818 130.224C69.6989 130.753 69.9678 131.314 70.1846 131.901C71.5016 134.825 72.0044 138.111 71.6302 141.348C71.2559 144.585 70.0211 147.629 68.0805 150.099C66.1398 152.568 63.5794 154.354 60.7199 155.232C57.8603 156.11 54.8286 156.041 52.0042 155.035C49.1799 154.029 46.6884 152.129 44.8416 149.574C42.9949 147.019 41.8749 143.922 41.6219 140.671C41.3689 137.42 41.9941 134.159 43.4193 131.296C44.8444 128.434 47.0062 126.097 49.6341 124.578C52.6526 122.784 56.1598 122.251 59.5079 123.078L78.0515 89.8184C74.045 85.9386 70.889 81.113 68.8199 75.7029Z" fill="black"/>
</svg>
