<svg width="200" height="200" viewBox="0 0 200 200" fill="none" xmlns="http://www.w3.org/2000/svg">
<rect width="200" height="200" fill="#EAF4FF"/>
<g clip-path="url(#clip0_200_200)">
<path d="M25.2958 100.498C25.2958 129.87 42.3657 155.253 67.1183 167.282L31.7205 70.2985C27.6031 79.5272 25.2958 89.74 25.2958 100.498Z" fill="#464342"/>
<path d="M149.598 96.7533C149.598 87.5825 146.304 81.2314 143.479 76.2881C139.717 70.1756 136.191 64.9993 136.191 58.8868C136.191 52.0656 141.365 45.7159 148.652 45.7159C148.981 45.7159 149.293 45.7568 149.614 45.7752C136.411 33.6802 118.822 26.2955 99.5028 26.2955C73.5782 26.2955 50.77 39.5964 37.5013 59.7425C39.2423 59.7947 40.883 59.8314 42.2767 59.8314C50.0385 59.8314 62.0534 58.8897 62.0534 58.8897C66.0536 58.6539 66.5252 64.5291 62.5292 65.0021C62.5292 65.0021 58.5092 65.4751 54.036 65.7095L81.0591 146.086L97.2987 97.383L85.7371 65.7067C81.7411 65.4723 77.9555 64.9993 77.9555 64.9993C73.9567 64.7649 74.4254 58.651 78.4243 58.8868C78.4243 58.8868 90.6791 59.8286 97.9708 59.8286C105.731 59.8286 117.747 58.8868 117.747 58.8868C121.751 58.651 122.221 64.5263 118.223 64.9993C118.223 64.9993 114.195 65.4723 109.73 65.7067L136.547 145.475L143.949 120.741C147.157 110.478 149.598 103.106 149.598 96.7533Z" fill="#464342"/>
<path d="M100.805 106.989L78.5401 171.684C85.1878 173.638 92.2183 174.707 99.5028 174.707C108.144 174.707 116.431 173.213 124.145 170.501C123.946 170.183 123.765 169.846 123.617 169.479L100.805 106.989Z" fill="#464342"/>
<path d="M164.616 64.8962C164.936 67.2599 165.116 69.7972 165.116 72.5266C165.116 80.0567 163.71 88.5215 159.474 99.1057L136.807 164.64C158.868 151.775 173.707 127.875 173.707 100.499C173.708 87.598 170.413 75.4663 164.616 64.8962Z" fill="#464342"/>
<path d="M99.5028 14C51.8064 14 13 52.8026 13 100.498C13 148.199 51.8064 187 99.5028 187C147.198 187 186.01 148.199 186.01 100.498C186.008 52.8026 147.198 14 99.5028 14ZM99.5028 183.035C53.9936 183.035 16.9663 146.009 16.9663 100.498C16.9663 54.9898 53.9922 17.9663 99.5028 17.9663C145.011 17.9663 182.035 54.9898 182.035 100.498C182.035 146.009 145.011 183.035 99.5028 183.035Z" fill="#464342"/>
</g>
<defs>
<clipPath id="clip0_200_200">
<rect width="173" height="173" fill="white" transform="translate(13 14)"/>
</clipPath>
</defs>
</svg>
